<?xml version="1.0" standalone="no"?>
<!DOCTYPE svg PUBLIC "-//W3C//DTD SVG 20010904//EN"
 "http://www.w3.org/TR/2001/REC-SVG-20010904/DTD/svg10.dtd">
<svg version="1.0" xmlns="http://www.w3.org/2000/svg"
 width="865.000000pt" height="872.000000pt" viewBox="0 0 865.000000 872.000000"
 preserveAspectRatio="xMidYMid meet">
<metadata>
Created by potrace 1.16, written by Peter Selinger 2001-2019
</metadata>
<g transform="translate(0.000000,872.000000) scale(0.100000,-0.100000)"
fill="#000000" stroke="none">
<path d="M4093 8693 c-96 -4 -115 -13 -64 -31 41 -15 47 -45 60 -314 12 -245
9 -273 -34 -284 -14 -3 -25 -11 -25 -17 0 -6 28 -8 83 -4 45 4 97 7 115 7 38
0 43 15 7 24 -13 3 -30 16 -36 28 -16 29 -41 501 -29 534 5 13 21 29 35 36 31
14 33 29 3 26 -13 -1 -65 -4 -115 -5z"/>
<path d="M4600 8693 c0 -5 13 -15 29 -24 36 -21 40 -31 120 -373 36 -154 71
-281 77 -283 6 -2 71 110 145 249 140 265 180 322 231 333 16 4 26 11 21 15
-11 12 -173 33 -182 24 -3 -4 0 -9 7 -11 27 -10 43 -36 37 -60 -8 -33 -206
-405 -212 -399 -7 7 -103 417 -103 441 0 26 18 45 42 45 17 0 27 20 11 20 -5
0 -53 7 -108 15 -118 17 -115 17 -115 8z"/>
<path d="M3468 8618 c-79 -20 -102 -38 -50 -38 16 0 37 -9 47 -20 11 -12 40
-102 71 -223 29 -111 51 -203 51 -204 -1 -1 -116 84 -255 188 -138 104 -259
189 -269 189 -24 0 -136 -31 -147 -41 -6 -5 3 -9 21 -9 37 0 76 -29 91 -67 23
-58 112 -423 112 -457 0 -30 -6 -40 -30 -55 -16 -10 -27 -20 -24 -23 5 -5 31
0 157 33 36 10 43 32 9 28 -39 -3 -52 2 -66 29 -13 26 -129 463 -123 468 1 1
132 -94 290 -212 159 -118 292 -212 297 -209 4 3 -23 125 -61 272 -38 148 -69
281 -69 296 0 21 8 32 30 45 16 9 30 20 30 25 0 11 -27 7 -112 -15z"/>
<path d="M5586 8513 c-3 -3 6 -14 19 -25 16 -12 25 -29 24 -46 0 -40 -162
-471 -187 -499 -16 -18 -27 -22 -47 -17 -34 8 -32 -11 3 -25 96 -38 386 -141
397 -141 16 0 80 88 71 97 -3 3 -24 -7 -46 -22 -48 -33 -68 -32 -190 17 -55
21 -86 39 -88 50 -3 17 64 214 79 232 4 4 49 -6 99 -25 93 -33 129 -62 116
-94 -3 -9 0 -15 7 -15 8 0 23 28 35 63 29 81 29 97 -1 69 -13 -12 -32 -22 -42
-22 -32 0 -195 62 -195 74 0 10 80 236 86 245 5 5 211 -69 230 -84 9 -6 20
-29 24 -51 l7 -39 12 30 c7 17 13 41 14 55 2 26 24 17 -325 143 -53 20 -99 33
-102 30z"/>
<path d="M2400 8250 c-87 -51 -115 -78 -67 -66 41 10 66 -22 177 -221 94 -168
101 -186 95 -221 -9 -53 -37 -96 -85 -131 -75 -54 -153 -49 -211 15 -30 32
-206 346 -216 382 -4 16 2 31 17 48 42 44 13 37 -90 -21 -55 -32 -98 -60 -95
-63 3 -4 21 -5 39 -4 41 4 42 3 161 -208 48 -85 99 -168 114 -184 34 -38 96
-66 146 -66 90 0 199 80 233 173 l19 50 19 -31 c10 -18 22 -32 27 -32 16 0
138 72 132 78 -3 4 -21 5 -38 4 -23 -2 -38 3 -54 20 -30 33 -253 438 -253 460
0 10 9 27 20 38 47 47 13 39 -90 -20z"/>
<path d="M6460 8134 c0 -3 7 -12 15 -20 8 -9 15 -26 15 -38 0 -24 -232 -389
-279 -439 -21 -24 -32 -28 -59 -23 -19 3 -32 1 -30 -5 5 -16 183 -130 186
-119 2 5 -4 17 -12 26 -20 20 -20 37 0 77 29 56 107 167 116 167 6 0 23 -10
40 -21 50 -36 58 -71 58 -242 l0 -154 56 -37 c31 -21 58 -35 62 -32 3 3 -2 21
-11 38 -13 25 -17 70 -20 183 -2 83 -7 157 -10 165 -6 12 3 15 52 15 45 0 67
5 87 21 96 71 97 182 2 270 -39 37 -243 174 -258 174 -5 0 -10 -3 -10 -6z
m203 -153 c58 -53 71 -113 41 -177 -21 -44 -64 -75 -113 -81 -30 -4 -51 1 -90
23 -28 15 -56 33 -62 40 -7 9 12 45 68 133 l78 120 25 -16 c14 -8 38 -27 53
-42z"/>
<path d="M3950 7770 c-233 -27 -434 -70 -662 -144 -271 -88 -653 -287 -890
-464 -229 -171 -265 -202 -449 -383 -340 -336 -470 -517 -688 -954 -90 -182
-138 -299 -185 -455 -41 -137 -97 -379 -106 -460 -5 -41 -16 -124 -24 -185
-31 -218 -15 -690 34 -1003 32 -203 130 -528 233 -767 59 -139 224 -424 314
-544 190 -253 397 -484 533 -594 41 -33 111 -93 155 -132 103 -92 150 -127
203 -154 24 -12 65 -37 90 -55 69 -49 228 -136 392 -215 276 -133 651 -248
900 -276 30 -3 116 -13 190 -21 440 -50 933 -9 1280 107 47 15 126 40 175 54
98 29 185 64 315 130 303 153 403 214 635 392 234 178 447 395 695 709 58 74
200 283 200 295 0 4 29 59 65 123 36 63 72 132 79 154 8 21 25 61 39 88 44 87
146 401 176 543 59 279 84 527 85 861 1 213 -3 285 -22 435 -43 326 -133 643
-254 895 -39 80 -86 177 -104 215 -80 166 -202 360 -307 488 -248 301 -441
489 -671 654 -193 139 -221 157 -341 221 -313 169 -439 224 -661 291 -503 150
-983 202 -1424 151z m530 -145 c246 -17 281 -20 370 -40 36 -8 97 -19 135 -24
49 -6 -39 -9 -297 -9 -202 0 -372 -3 -378 -7 -5 -3 -150 -3 -322 1 -261 6
-307 9 -278 19 40 14 134 28 330 50 74 8 149 17 165 18 17 2 37 5 45 5 8 1
112 -5 230 -13z m850 -150 c25 -12 71 -27 103 -34 90 -20 72 -35 -30 -25 -104
10 -64 10 -533 1 -541 -11 -1624 -7 -1636 6 -6 6 124 60 176 73 34 9 272 11
960 7 l915 -6 45 -22z m-887 -106 l1188 0 57 -25 c31 -14 73 -33 92 -42 l35
-16 -85 -7 c-46 -4 -640 -5 -1320 -2 -679 2 -1296 4 -1370 3 -149 -2 -151 0
-55 51 81 43 108 49 195 43 41 -3 610 -5 1263 -5z m-148 -138 c281 -1 762 -1
1069 -1 l560 0 53 -32 c29 -18 53 -35 53 -39 0 -4 -15 -9 -32 -12 -99 -14
-3289 -9 -3304 6 -8 8 68 57 113 72 30 11 134 13 508 10 259 -2 700 -4 980 -4z
m305 -130 c784 1 1445 1 1470 2 36 0 56 -7 102 -39 32 -21 58 -42 58 -45 0
-16 -3640 -18 -3708 -2 -30 7 -15 25 49 61 l46 27 279 -3 c153 -1 920 -2 1704
-1z m1754 -165 c20 -15 36 -31 36 -35 0 -19 -434 -23 -1830 -20 -806 2 -1642
3 -1857 3 -216 -1 -393 1 -393 5 1 3 22 22 48 42 l46 36 1957 -1 1957 -2 36
-28z m-1457 -100 l1571 -1 26 -24 c14 -14 26 -28 26 -31 0 -16 -365 -22 -1520
-26 -674 -2 -1335 -4 -1470 -3 -135 1 -498 3 -807 3 -310 1 -563 3 -563 6 0 8
14 24 43 50 27 24 35 25 200 31 95 3 341 3 547 1 206 -3 1082 -5 1947 -6z
m-337 -183 c717 3 966 2 1503 -8 416 -7 467 -10 468 -24 3 -48 -2 -1875 -7
-2521 -3 -415 -7 -987 -9 -1270 -2 -283 -8 -543 -13 -577 -12 -70 -43 -147
-75 -182 -12 -13 -54 -50 -94 -81 -173 -139 -552 -239 -1081 -285 -379 -33
-582 -83 -730 -182 -96 -64 -140 -114 -191 -218 l-37 -75 -32 49 c-109 168
-312 290 -582 350 -174 38 -178 39 -350 51 -132 10 -208 19 -570 65 -179 23
-366 84 -482 157 -65 41 -151 156 -178 238 -33 103 -41 237 -35 595 3 182 7
656 10 1055 3 399 10 973 16 1275 6 303 9 609 8 680 -1 72 -1 304 0 517 l1
387 28 4 c15 2 452 3 972 1 520 -2 1177 -3 1460 -1z m-2572 -350 l3 -43 -146
0 -146 0 22 40 c21 37 25 39 78 42 31 2 85 4 121 3 l65 0 3 -42z m4972 15 c35
-57 32 -59 -97 -56 -65 1 -126 5 -135 10 -12 6 -18 20 -18 43 l0 35 115 0 115
0 20 -32z m-4992 -108 c19 0 22 -5 22 -39 0 -26 -5 -41 -16 -45 -9 -3 -94 -6
-191 -6 l-174 0 23 42 c14 25 33 45 48 49 14 4 79 6 145 3 66 -2 130 -4 143
-4z m5079 -29 c42 -63 43 -63 -154 -57 -98 3 -179 5 -180 5 -6 2 -2 78 4 85 4
3 74 5 157 4 l150 -3 23 -34z m-105 -101 l176 0 21 -36 c12 -19 21 -39 21 -44
0 -4 -100 -8 -222 -7 l-223 2 -3 33 c-5 49 4 65 31 58 12 -3 101 -6 199 -6z
m-4952 -34 c0 -55 1 -55 -220 -56 -113 0 -215 -1 -228 0 -22 0 -22 1 -7 29 32
62 28 61 251 60 l204 -1 0 -32z m-10 -112 c6 -6 10 -27 8 -45 l-3 -34 -249 2
c-137 1 -255 4 -263 7 -15 6 -1 54 22 71 19 15 470 14 485 -1z m5225 -15 c31
-59 31 -59 -245 -59 l-250 0 0 45 0 45 240 0 239 0 16 -31z m-5247 -113 c31
-7 33 -10 30 -44 l-3 -37 -250 -3 c-257 -3 -335 2 -335 20 0 5 7 24 15 41 l15
32 247 -1 c137 0 263 -4 281 -8z m5307 -16 c25 -49 20 -60 -27 -61 -210 -4
-442 -5 -480 -1 l-48 5 0 38 c0 27 5 39 18 42 9 3 131 5 269 6 l252 1 16 -30z
m53 -128 c15 -20 27 -61 19 -68 -6 -7 -597 -14 -613 -7 -9 3 -14 21 -14 48 0
54 -21 51 330 47 234 -3 267 -5 278 -20z m-5344 5 c12 -9 17 -23 14 -47 l-3
-35 -230 -1 c-126 0 -273 2 -326 5 l-95 6 18 43 19 42 292 0 c224 0 297 -3
311 -13z m-6 -132 c7 -3 12 -21 12 -45 l0 -40 -336 1 c-185 0 -342 3 -349 5
-14 6 -5 55 14 78 7 8 94 10 328 8 175 -2 324 -5 331 -7z m5416 -29 c14 -28
16 -40 7 -45 -9 -6 -606 -7 -668 -2 -8 1 -13 16 -13 41 l0 39 158 3 c86 2 234
3 327 3 l170 0 19 -39z m-5447 -102 c37 -4 42 -9 48 -35 4 -17 3 -35 -1 -39
-5 -5 -40 -10 -79 -11 -104 -4 -665 13 -669 20 -8 14 16 70 31 73 26 5 624 -2
670 -8z m5480 8 c16 -10 35 -64 26 -72 -12 -11 -706 -22 -721 -12 -8 6 -12 23
-10 43 l3 34 310 5 c171 3 326 6 345 8 19 1 40 -2 47 -6z m-5479 -138 l52 -5
0 -38 c0 -35 -3 -39 -31 -45 -34 -7 -661 2 -726 10 -41 5 -41 5 -32 37 5 18
15 37 22 42 15 11 620 10 715 -1z m5522 0 c6 -6 14 -24 19 -41 8 -29 7 -31
-21 -37 -17 -3 -190 -6 -386 -6 -385 -1 -375 -2 -370 55 l3 30 215 5 c320 7
529 5 540 -6z m-5488 -140 c4 -3 8 -22 8 -42 l0 -37 -377 3 c-208 1 -393 5
-412 8 -31 5 -33 7 -27 37 3 17 12 34 18 38 13 8 777 1 790 -7z m5534 -8 c8
-14 14 -33 12 -43 -3 -17 -28 -18 -393 -23 -215 -3 -396 -3 -402 -1 -13 3 -18
72 -7 84 4 4 179 7 390 7 l383 0 17 -24z m-5548 -122 c18 -4 22 -11 22 -45 l0
-41 -427 7 c-236 4 -429 8 -431 9 -10 10 15 69 32 76 21 9 759 3 804 -6z
m5553 7 c31 -6 34 -10 37 -44 2 -25 -1 -37 -10 -38 -75 -4 -810 1 -818 6 -5 3
-10 21 -10 40 0 33 2 34 43 38 77 7 723 5 758 -2z m-5553 -137 c24 -5 27 -19
12 -59 l-10 -26 -427 7 c-236 3 -430 8 -431 9 -11 10 13 67 31 74 21 8 785 4
825 -5z m5602 -4 c5 -8 10 -27 10 -42 l0 -28 -112 -1 c-62 -1 -252 -2 -421 -2
-334 -1 -330 -2 -325 53 3 23 8 25 63 30 33 3 221 5 418 5 307 0 359 -2 367
-15z m-5752 -120 l162 0 0 -45 0 -45 -427 1 c-235 1 -433 3 -440 6 -17 6 -17
44 0 66 14 19 100 24 377 20 91 -1 238 -3 328 -3z m5763 -7 c6 -6 9 -26 7 -44
l-3 -34 -432 -2 -433 -3 0 40 c0 26 6 42 16 48 23 13 833 7 845 -5z m-5610
-133 c14 -8 19 -21 19 -52 l0 -41 -432 6 c-238 3 -441 8 -450 12 -18 7 -23 39
-12 69 5 14 53 16 431 16 273 0 431 -4 444 -10z m5627 -36 l3 -41 -73 -6 c-40
-3 -237 -4 -438 -4 l-365 2 -3 48 -3 47 438 -2 438 -3 3 -41z m-5730 -100
l113 -6 -3 -37 -3 -36 -440 3 c-322 3 -442 7 -447 15 -10 15 -10 61 -1 71 7 7
585 0 781 -10z m5737 -29 c0 -37 -2 -40 -34 -46 -19 -4 -220 -7 -447 -8 l-414
0 0 39 c0 22 1 41 3 42 3 2 756 15 832 14 l60 -1 0 -40z m-5637 -100 c7 -3 12
-21 12 -45 l0 -40 -127 -1 c-235 -3 -728 2 -744 7 -20 6 -29 42 -18 71 8 21
10 21 436 16 235 -2 434 -6 441 -8z m5610 9 c18 -5 22 -13 22 -50 l0 -43 -107
-3 c-60 -2 -256 -3 -437 -1 -358 2 -346 0 -346 60 l0 33 398 3 c218 1 408 3
422 4 14 2 35 0 48 -3z m-5905 -141 l308 -6 -3 -41 -3 -41 -225 -7 c-124 -4
-319 -4 -433 -1 -186 5 -209 8 -217 24 -14 25 -12 66 3 72 18 8 222 8 570 0z
m5918 -10 c7 -7 9 -25 5 -46 -6 -32 -11 -36 -48 -42 -23 -4 -220 -4 -439 0
l-397 7 0 44 0 43 131 3 c342 7 736 3 748 -9z m-5621 -138 c5 -3 10 -22 10
-41 l0 -34 -57 -1 c-32 -1 -224 0 -428 0 -334 1 -371 3 -382 18 -7 9 -13 27
-13 40 0 21 4 22 93 25 157 5 766 0 777 -7z m5333 6 l277 -1 0 -34 c0 -19 -6
-38 -12 -43 -15 -9 -701 -14 -795 -6 l-62 5 5 32 c3 17 7 36 9 41 1 6 60 10
151 9 82 -1 274 -2 427 -3z m-5332 -136 c5 -4 9 -21 9 -39 l0 -33 -72 -7 c-99
-9 -720 -7 -755 3 -23 6 -29 14 -31 41 -2 18 1 36 7 40 13 8 829 3 842 -5z
m5442 5 l157 0 0 -33 c0 -18 -5 -38 -12 -45 -13 -13 -652 -18 -781 -5 l-68 6
3 36 3 36 190 6 c105 3 226 4 270 3 44 -2 151 -4 238 -4z m-5447 -137 c16 -6
20 -68 4 -78 -5 -3 -188 -6 -405 -6 -289 0 -401 3 -411 12 -8 6 -14 27 -14 45
l0 34 406 0 c223 -1 412 -4 420 -7z m5572 -2 c9 -6 11 -19 7 -44 l-7 -35 -76
-5 c-64 -3 -284 -3 -684 2 l-68 1 0 38 c0 21 3 41 6 44 9 10 808 9 822 -1z
m-5568 -141 c9 -15 4 -48 -9 -62 -4 -5 -181 -9 -395 -10 -421 -2 -406 -4 -406
54 0 14 6 29 13 32 6 2 187 4 400 3 332 -2 389 -4 397 -17z m5557 6 c3 -3 1
-22 -4 -43 l-9 -38 -194 -2 c-107 -1 -288 1 -402 4 l-208 6 0 42 0 41 406 -2
c223 -1 408 -5 411 -8z m-5556 -133 c6 -6 9 -23 7 -39 l-3 -29 -95 -7 c-52 -5
-223 -6 -380 -3 -311 6 -310 6 -310 65 l0 27 386 -2 c244 -2 389 -6 395 -12z
m5512 8 c21 -1 22 -23 2 -61 l-16 -30 -318 0 c-175 0 -346 3 -380 6 l-61 7 0
37 c0 20 2 39 4 41 4 3 706 3 769 0z m-5520 -131 c5 0 7 -19 5 -42 l-3 -43
-288 0 c-429 0 -446 2 -447 62 0 17 7 22 33 25 23 2 614 1 700 -2z m5475 -5
c14 -5 16 -44 2 -65 -8 -12 -53 -16 -267 -20 -142 -3 -303 -3 -358 0 l-100 5
-3 45 -3 45 358 -3 c197 -1 364 -5 371 -7z m-5658 -133 l185 -7 3 -34 c2 -19
-2 -37 -8 -41 -7 -4 -110 -6 -229 -4 -119 2 -265 3 -324 4 l-108 0 -15 37
c-15 34 -14 38 1 49 17 12 36 12 495 -4z m5626 -24 c-13 -64 -5 -63 -361 -66
l-324 -4 -7 37 c-3 20 -3 39 1 43 8 8 240 17 514 20 l184 2 -7 -32z m-5473
-115 c37 -6 38 -7 35 -42 l-3 -36 -85 -3 c-47 -2 -185 0 -307 3 l-221 7 -12
28 c-7 16 -9 34 -5 39 7 12 531 16 598 4z m5414 -6 c2 -4 -1 -23 -7 -42 -9
-26 -17 -35 -33 -35 -12 0 -149 -2 -303 -6 l-281 -5 -6 23 c-12 43 2 67 41 71
68 7 584 2 589 -6z m-5404 -134 c25 -5 28 -9 25 -42 l-3 -36 -145 -2 c-80 -2
-203 0 -275 5 l-130 7 -18 35 c-17 35 -17 35 5 42 26 8 497 1 541 -9z m5344 1
c3 -9 -1 -31 -10 -50 l-17 -34 -112 0 c-62 0 -186 -3 -275 -6 l-163 -6 0 40
c0 23 6 44 13 49 6 4 129 10 272 13 143 3 266 7 273 8 7 1 15 -5 19 -14z
m-5508 -129 c96 -3 177 -7 179 -9 2 -3 5 -20 5 -38 l2 -33 -239 0 -239 0 -18
25 c-9 14 -20 35 -24 48 l-7 23 84 -5 c45 -3 161 -8 257 -11z m5449 -9 c11
-12 -30 -76 -52 -82 -12 -3 -117 -4 -234 -2 -230 4 -235 5 -230 58 3 24 6 25
88 30 116 7 420 4 428 -4z m-5266 -129 c12 -19 9 -77 -4 -82 -7 -2 -95 -6
-196 -8 l-182 -4 -30 40 c-17 23 -30 46 -30 51 0 16 432 19 442 3z m5186 -5
c9 -6 5 -19 -19 -51 l-31 -43 -181 7 c-100 4 -185 9 -189 12 -10 5 -10 67 -1
76 9 10 405 8 421 -1z m-5225 -128 c34 -6 37 -9 37 -40 0 -31 -2 -33 -42 -38
-24 -3 -59 -5 -78 -4 -19 1 -66 0 -105 -2 -64 -2 -71 0 -92 24 -34 40 -30 54
20 59 75 6 221 7 260 1z m5106 -10 c38 -8 39 -15 4 -54 l-28 -30 -140 8 -140
7 -3 38 -3 37 139 0 c77 0 154 -3 171 -6z m-5061 -153 c2 -20 -2 -37 -10 -42
-7 -5 -57 -9 -110 -9 l-97 0 -30 37 c-17 21 -31 40 -31 43 0 3 62 5 138 5
l137 0 3 -34z m5011 23 c3 -2 -4 -17 -16 -32 -27 -37 -72 -48 -170 -44 l-83 4
0 37 c0 21 3 41 8 45 7 8 253 -2 261 -10z m-899 -831 c0 -5 -28 -26 -63 -48
l-62 -40 -185 -1 c-102 -1 -225 -3 -275 -4 -184 -4 -390 1 -370 10 11 5 51 9
89 9 85 1 319 26 446 47 52 9 160 19 240 23 80 5 153 9 163 10 9 0 17 -2 17
-6z m-3010 -24 c80 -5 239 -22 354 -37 l208 -27 -238 -5 c-132 -3 -334 -2
-451 2 -225 6 -249 12 -323 68 -25 19 -24 19 140 15 91 -3 230 -10 310 -16z
m753 -129 c59 -12 170 -67 162 -80 -4 -6 -67 -8 -163 -4 -86 3 -312 6 -502 8
-375 2 -363 1 -463 63 l-47 29 482 -3 c269 -2 504 -7 531 -13z m2027 15 c0 -4
-47 -29 -105 -56 l-105 -51 -453 0 c-248 0 -478 3 -510 7 l-59 8 29 18 c75 50
131 63 298 69 244 8 905 12 905 5z m-1971 -144 l193 -1 40 -40 c23 -23 37 -44
32 -51 -5 -9 -88 -10 -328 -5 -177 4 -352 9 -391 12 -58 5 -213 40 -315 71
-33 10 182 19 405 16 94 -1 257 -2 364 -2z m1637 -14 c2 -1 -39 -19 -89 -39
l-93 -37 -284 -7 c-356 -10 -537 -10 -545 -2 -8 8 20 64 37 75 7 4 38 10 68
14 51 5 901 2 906 -4z m-1636 -134 c47 -3 132 -6 190 -8 58 -1 111 -3 118 -4
13 -1 42 -59 42 -82 0 -7 -9 -9 -23 -5 -28 7 -169 23 -307 36 -112 10 -382 57
-415 71 -19 9 207 4 395 -8z m1232 -4 c-13 -5 -67 -18 -120 -30 -53 -11 -126
-27 -162 -35 -36 -8 -136 -17 -222 -21 l-158 -6 0 25 c0 13 6 33 14 44 13 17
32 19 218 24 348 10 455 10 430 -1z"/>
<path d="M2485 6581 l-300 -6 -7 -285 c-10 -453 -17 -1048 -23 -1995 -3 -484
-10 -1040 -14 -1235 -12 -487 -5 -764 23 -867 21 -79 56 -140 104 -185 45 -42
232 -137 309 -157 66 -18 251 -49 333 -56 41 -4 104 -11 140 -17 71 -11 183
-22 385 -38 160 -12 251 -26 335 -51 209 -63 356 -144 454 -250 l64 -71 32 46
c71 104 204 204 331 248 166 59 364 93 699 124 310 28 444 53 650 122 236 80
385 186 421 301 16 50 27 780 29 1856 2 882 0 2498 -4 2502 -6 7 -802 15
-1326 14 -1008 -2 -2148 -1 -2245 2 -49 2 -225 1 -390 -2z m2767 -369 c-179
-180 -447 -450 -596 -599 -149 -150 -273 -273 -276 -273 -3 0 -4 37 -2 82 3
82 3 83 45 126 23 24 61 51 83 61 76 34 147 89 177 137 64 103 70 226 17 306
l-28 42 21 31 c43 61 193 231 253 286 21 19 54 54 72 77 38 48 28 47 358 49
l202 2 -326 -327z m-1488 165 c82 -84 174 -178 204 -210 l55 -57 -25 -28 c-44
-48 -57 -75 -64 -144 -6 -56 -3 -77 17 -133 25 -72 52 -100 166 -170 35 -21
82 -62 107 -91 39 -48 44 -60 50 -124 4 -40 5 -75 1 -78 -5 -6 -1185 1174
-1185 1185 0 2 118 3 263 3 l262 -2 149 -151z m274 130 c24 -19 122 -239 122
-273 0 -41 -19 -45 -51 -11 -56 58 -209 256 -209 270 0 10 14 19 43 25 44 10
73 7 95 -11z m262 -35 c0 -103 -14 -272 -22 -272 -4 0 -20 23 -36 51 -15 28
-43 74 -61 103 -42 61 -62 115 -54 144 6 23 41 30 126 24 l47 -4 0 -46z m-473
24 c16 -14 43 -44 59 -68 27 -41 67 -90 162 -199 23 -27 42 -54 42 -59 0 -38
-116 52 -165 128 -15 24 -45 54 -66 68 -22 13 -39 29 -39 34 0 6 -16 28 -36
50 -56 62 -21 100 43 46z m679 -98 c-57 -112 -104 -173 -123 -155 -13 13 -5
181 10 222 14 38 17 40 69 46 118 13 113 25 44 -113z m196 35 c-33 -49 -70
-97 -82 -108 -12 -11 -33 -37 -46 -57 -18 -27 -31 -38 -49 -38 -14 0 -25 3
-25 6 0 12 42 74 50 74 9 0 45 57 55 90 11 36 104 120 131 120 23 0 22 -4 -34
-87z m-330 -420 c15 -15 28 -34 28 -44 0 -18 -72 -89 -91 -89 -11 0 -48 76
-49 100 0 9 7 26 16 38 21 30 61 28 96 -5z m-1872 -760 c150 -153 308 -309
349 -348 42 -38 172 -168 289 -287 151 -155 212 -224 212 -240 0 -17 -150
-172 -575 -596 -316 -316 -576 -570 -576 -565 -3 19 3 1309 7 1668 2 215 4
447 4 518 0 70 4 127 9 127 4 0 131 -125 281 -277z m3904 -885 c-2 -616 -6
-1123 -9 -1126 -3 -4 -70 59 -147 138 -78 80 -330 335 -560 566 -230 232 -418
426 -418 432 0 6 253 265 563 575 399 402 564 561 568 550 3 -9 4 -520 3
-1135z m-2389 888 c92 -25 206 -86 231 -124 35 -51 38 -140 26 -712 -9 -466
-16 -588 -36 -607 -3 -3 -27 11 -53 30 -70 51 -139 75 -266 93 -103 14 -156
14 -239 -3 l-29 -6 7 664 c4 466 9 668 17 678 16 18 260 10 342 -13z m923 -2
c8 -2 13 -19 13 -41 -1 -21 2 -112 5 -201 4 -90 3 -368 -1 -618 -7 -435 -8
-454 -26 -449 -106 34 -256 15 -394 -51 -49 -23 -103 -51 -118 -61 -27 -17
-29 -17 -42 1 -23 31 -28 117 -28 526 0 441 14 719 38 756 38 58 224 123 420
147 31 4 110 -2 133 -9z m-1334 -521 c-2 -274 -4 -566 -4 -650 l0 -152 -44
-54 c-24 -30 -50 -67 -59 -82 l-15 -29 -6 50 c-8 60 0 991 9 1164 6 111 10
129 33 163 22 33 76 87 87 87 2 0 1 -224 -1 -497z m1433 247 c9 -24 21 26 22
97 1 34 6 65 11 68 7 4 10 -60 10 -184 0 -154 3 -191 14 -191 15 0 26 86 26
210 0 41 4 81 9 89 11 18 26 -203 17 -267 -3 -26 -6 -260 -7 -519 0 -284 -4
-475 -10 -478 -10 -7 -10 -1 -13 377 -1 184 -5 261 -14 270 -6 6 -15 8 -19 4
-8 -8 -10 -95 -4 -191 1 -27 1 -104 -1 -170 -8 -214 -7 -211 -18 -195 -6 9
-10 89 -9 196 1 100 -1 186 -5 193 -18 29 -26 -10 -27 -132 -1 -73 -5 -145
-10 -162 -5 -17 -6 121 -3 315 2 190 5 455 5 589 1 240 11 362 17 186 1 -49 5
-97 9 -105z m-122 -1089 c43 -19 145 -123 145 -147 0 -12 -34 -14 -197 -14
-201 0 -414 -15 -445 -32 -11 -5 -18 -20 -18 -38 0 -44 -40 -84 -84 -84 -44 0
-76 29 -91 82 l-11 37 -348 3 -348 2 6 28 c10 43 115 137 169 150 91 23 209
12 389 -38 21 -6 76 -40 122 -75 47 -36 93 -65 102 -65 9 0 37 18 61 41 68 63
250 140 383 162 60 10 127 5 165 -12z m-335 -696 l255 -255 -107 0 c-63 0
-109 -4 -113 -10 -4 -6 6 -27 22 -47 81 -102 88 -114 73 -123 -21 -13 -210
-13 -210 0 0 6 12 29 26 52 42 67 56 104 41 116 -15 12 -377 20 -394 9 -20
-12 -17 -19 38 -101 29 -42 49 -79 46 -82 -3 -3 -60 -2 -127 3 l-121 8 67 80
c64 77 65 80 43 86 -13 4 -88 7 -166 8 -79 1 -143 4 -143 8 0 12 494 503 505
503 5 -1 125 -115 265 -255z m345 -325 c12 -22 15 -65 15 -189 0 -88 -3 -162
-7 -164 -12 -7 -342 -11 -752 -8 -366 2 -391 4 -391 37 0 12 90 14 550 14
l550 0 0 163 c0 184 5 205 35 147z m-1213 -169 c-4 -131 -3 -141 18 -175 40
-65 41 -66 161 -66 70 0 109 -4 109 -11 0 -14 -92 -252 -102 -264 -5 -5 -48
-12 -96 -15 l-87 -5 -5 -195 -5 -195 -25 0 c-197 0 -841 69 -939 101 -9 3 173
189 475 488 269 266 492 482 495 480 4 -2 4 -66 1 -143z m2120 -783 c-4 -4
-54 -19 -112 -33 -139 -34 -706 -93 -723 -76 -8 8 -11 53 -9 144 1 73 0 151
-3 175 l-6 42 -84 0 c-94 0 -105 7 -120 79 -4 18 -18 57 -31 86 -12 29 -24 66
-26 82 l-3 28 125 6 c69 3 131 9 138 13 8 5 12 49 12 150 0 78 3 146 7 150 4
3 195 -184 425 -416 229 -233 414 -426 410 -430z m-902 45 c0 -76 -4 -143 -8
-149 -4 -6 -17 -14 -29 -18 l-23 -7 0 149 c0 82 3 152 7 155 3 4 17 7 30 7 23
0 23 0 23 -137z m-585 95 c34 -15 32 -35 -5 -43 -55 -12 -82 -69 -91 -188 -4
-56 -8 -121 -8 -144 l-1 -43 -101 0 c-88 0 -110 4 -163 27 -33 14 -65 30 -70
34 -5 5 48 8 119 8 73 0 132 4 138 10 6 6 13 66 17 133 7 128 13 149 52 184
38 35 70 42 113 22z m55 -216 c0 -87 4 -116 22 -159 l21 -52 -44 -43 c-25 -24
-62 -62 -82 -86 l-38 -43 -21 27 c-12 15 -41 39 -65 54 -23 15 -40 30 -36 34
3 3 35 6 70 6 42 0 65 4 68 13 3 6 6 73 8 147 3 147 13 185 56 207 14 6 29 10
33 7 4 -3 8 -53 8 -112z"/>
<path d="M3737 5023 c-15 -14 -6 -44 16 -52 12 -5 56 -17 97 -26 110 -25 256
-80 321 -120 62 -38 79 -43 79 -21 0 43 -228 157 -410 206 -83 22 -94 23 -103
13z"/>
<path d="M3741 4638 c-14 -37 10 -51 97 -59 94 -8 237 -61 324 -120 62 -42 78
-47 78 -24 0 37 -256 180 -375 210 -85 21 -114 20 -124 -7z"/>
<path d="M3748 4269 c-21 -12 -24 -42 -5 -57 6 -6 46 -15 87 -21 140 -19 255
-52 351 -101 55 -29 67 -25 33 11 -47 50 -229 129 -382 164 -35 8 -64 15 -65
15 -1 0 -10 -5 -19 -11z"/>
<path d="M4770 5021 c-8 -5 -51 -21 -95 -37 -92 -32 -183 -83 -234 -130 -48
-44 -33 -53 31 -18 104 55 144 73 255 108 107 35 125 47 116 74 -5 14 -50 16
-73 3z"/>
<path d="M4680 4636 c-138 -56 -206 -91 -257 -133 -43 -34 -54 -53 -31 -53 7
0 46 18 88 39 41 22 135 58 208 81 133 42 160 59 146 94 -9 24 -39 19 -154
-28z"/>
<path d="M4710 4291 c-152 -50 -352 -172 -326 -198 4 -4 17 -1 29 7 76 49 182
92 286 116 64 15 122 31 129 37 18 14 15 45 -7 57 -24 12 -10 15 -111 -19z"/>
<path d="M7238 7450 c-89 -48 -115 -135 -84 -284 20 -100 21 -175 0 -204 -19
-27 -65 -52 -96 -52 -33 0 -85 35 -108 72 -34 56 -35 92 -7 150 14 29 24 54
21 57 -5 6 -124 -110 -124 -121 0 -4 9 -8 19 -8 14 0 30 -19 53 -62 81 -152
246 -171 335 -39 30 44 30 123 1 251 -24 110 -20 155 19 194 35 36 90 36 133
0 61 -52 75 -111 40 -177 -29 -53 -5 -48 53 11 50 51 56 62 32 62 -8 0 -30 24
-48 53 -41 63 -61 81 -110 102 -48 20 -84 18 -129 -5z"/>
<path d="M996 7125 c-80 -96 -146 -179 -146 -185 0 -6 11 -3 25 6 15 10 34 14
48 10 28 -7 389 -305 412 -339 13 -20 14 -29 4 -51 -18 -38 -4 -43 24 -10 14
16 81 97 150 179 l125 150 -33 45 c-35 47 -64 67 -50 34 13 -31 18 -72 11 -97
-8 -32 -133 -177 -153 -177 -9 0 -47 26 -85 58 -39 31 -82 67 -96 78 l-26 21
69 83 c67 81 69 82 107 77 21 -3 38 -1 38 3 0 5 -25 30 -55 56 -54 46 -81 52
-57 14 7 -11 12 -26 12 -33 0 -9 -94 -132 -135 -175 -5 -5 -202 161 -205 172
-4 12 131 172 157 186 16 9 29 10 52 2 42 -15 39 -2 -8 36 l-39 32 -146 -175z"/>
<path d="M7826 6885 c4 -23 2 -41 -7 -51 -14 -17 -377 -272 -416 -293 -30 -15
-49 -14 -67 5 -9 8 -21 14 -26 12 -13 -4 111 -187 127 -188 8 0 8 7 0 30 -10
26 -8 32 13 56 14 14 112 86 219 160 198 137 227 150 262 118 9 -8 20 -11 23
-6 6 10 -114 191 -127 192 -4 0 -5 -16 -1 -35z"/>
<path d="M532 6454 c-35 -70 -47 -104 -38 -104 8 0 16 7 20 15 11 28 72 17
171 -32 52 -26 95 -52 95 -58 0 -9 -136 -295 -145 -303 -6 -7 -201 97 -219
116 -12 15 -16 29 -12 46 15 59 -14 27 -62 -69 -49 -99 -56 -138 -17 -95 10
11 28 20 40 20 25 0 450 -202 478 -227 13 -12 18 -27 15 -50 -7 -61 18 -35 66
68 48 103 52 130 16 91 -12 -12 -31 -22 -43 -22 -29 0 -227 96 -227 109 0 19
144 301 154 301 19 0 195 -89 215 -109 15 -15 19 -28 15 -51 -12 -59 14 -29
60 71 26 56 45 104 41 107 -3 3 -16 -5 -29 -17 -32 -30 -40 -27 -281 90 -237
116 -259 131 -251 170 12 59 -12 34 -62 -67z"/>
<path d="M8108 6408 c-38 -17 -68 -34 -68 -39 0 -4 18 -7 40 -6 28 1 46 -5 63
-21 31 -30 84 -140 71 -151 -23 -22 -476 -221 -503 -221 -19 0 -35 8 -45 22
-34 48 -26 4 16 -88 43 -94 77 -138 62 -80 -4 18 -1 33 10 45 16 18 504 248
509 240 2 -2 15 -32 30 -65 32 -73 34 -122 7 -157 -11 -14 -20 -28 -20 -31 0
-6 112 42 124 55 6 5 0 19 -16 36 -34 35 -198 393 -207 449 l-6 42 -67 -30z"/>
<path d="M146 5593 c-2 -2 -2 -21 1 -41 6 -48 -80 -433 -107 -480 -12 -19 -20
-36 -18 -37 2 -1 33 -9 71 -18 68 -15 100 -7 54 14 -47 21 -56 71 -33 169 10
44 17 55 32 53 45 -5 479 -105 510 -118 28 -12 34 -19 34 -45 0 -20 4 -30 12
-28 12 4 62 207 53 216 -3 3 -14 -7 -26 -21 -11 -15 -30 -27 -42 -27 -12 0
-138 25 -280 57 l-259 57 7 35 c20 113 57 171 109 171 49 0 26 17 -44 32 -39
8 -72 13 -74 11z"/>
<path d="M8490 5528 c0 -27 -18 -49 -123 -155 l-123 -124 -109 -24 c-158 -35
-162 -34 -200 20 -19 28 -26 16 -16 -26 5 -19 17 -69 26 -111 16 -75 35 -104
35 -55 0 13 8 31 18 40 17 16 217 67 261 67 11 0 84 -25 163 -55 113 -42 149
-61 170 -86 15 -18 30 -31 32 -28 3 3 -2 42 -12 87 -11 57 -21 82 -31 82 -8 0
-11 -3 -8 -6 3 -4 2 -16 -4 -26 -9 -16 -18 -19 -47 -15 -46 6 -212 66 -212 76
0 15 178 181 194 181 10 0 21 -13 27 -30 6 -16 15 -30 20 -30 12 0 13 -7 -16
126 -14 64 -25 117 -25 120 0 2 -4 4 -10 4 -5 0 -10 -14 -10 -32z"/>
<path d="M7937 3551 c-15 -54 -27 -103 -27 -110 0 -19 17 -12 23 9 9 34 49 34
170 0 l114 -31 -47 -165 c-27 -91 -49 -167 -51 -168 -9 -8 -206 56 -229 73
-16 12 -25 28 -25 45 1 57 -22 21 -51 -81 -17 -60 -30 -110 -28 -112 2 -2 15
8 30 24 22 23 31 26 62 21 79 -13 473 -134 492 -151 12 -11 20 -31 20 -49 0
-18 4 -26 9 -21 10 11 70 218 65 224 -2 2 -15 -8 -30 -24 -22 -24 -30 -27 -67
-22 -23 4 -81 19 -128 34 l-87 28 45 155 c24 85 46 160 48 167 3 9 12 10 32 3
15 -5 67 -20 115 -35 95 -28 118 -44 118 -81 0 -51 18 -20 48 83 17 59 28 110
26 113 -3 3 -15 -7 -26 -23 -12 -17 -29 -27 -45 -27 -41 0 -476 129 -503 149
-16 12 -25 28 -25 45 1 56 -22 22 -48 -73z"/>
<path d="M368 3572 c-196 -71 -281 -289 -188 -479 83 -167 285 -235 455 -153
58 28 124 96 154 160 22 47 26 68 26 145 -1 78 -5 98 -30 150 -38 79 -109 148
-180 174 -69 26 -171 27 -237 3z m297 -99 c51 -27 79 -57 104 -113 79 -174
-93 -360 -332 -360 -96 0 -144 17 -198 70 -142 137 -61 335 169 411 76 25 200
21 257 -8z"/>
<path d="M1015 2690 c9 -43 -11 -59 -235 -187 -245 -140 -245 -140 -283 -113
-16 12 -31 20 -33 17 -7 -7 110 -206 118 -201 4 3 5 17 2 32 -4 19 0 35 13 49
16 20 182 121 206 126 4 1 28 -32 52 -73 46 -79 56 -128 30 -150 -8 -7 -15
-17 -15 -22 0 -11 127 56 150 80 13 13 11 14 -17 9 -18 -4 -40 -4 -48 -1 -21
8 -119 175 -108 184 4 4 56 34 115 68 78 44 110 57 116 49 17 -21 102 -183
102 -195 0 -6 -11 -24 -25 -40 -13 -16 -22 -32 -19 -35 8 -8 97 46 96 58 -2
18 -207 375 -215 375 -5 0 -6 -13 -2 -30z"/>
<path d="M7610 2644 c0 -20 -17 -45 -60 -90 -82 -85 -104 -136 -105 -244 0
-72 4 -94 27 -142 74 -158 255 -244 409 -193 80 27 180 131 243 254 39 75 45
95 35 103 -8 5 -44 27 -80 49 -36 22 -77 51 -90 65 -20 22 -22 28 -12 54 6 17
8 32 3 35 -8 5 -120 -168 -135 -207 -10 -26 4 -22 27 7 12 16 30 25 46 25 27
0 140 -62 154 -84 24 -35 -11 -117 -69 -165 -57 -47 -133 -67 -210 -54 -289
50 -419 343 -211 480 36 24 52 28 115 28 40 0 73 3 73 6 0 5 -87 60 -152 96
-5 2 -8 -8 -8 -23z"/>
<path d="M7050 1818 c-50 -14 -93 -49 -204 -165 -90 -94 -108 -123 -56 -91 33
21 75 -11 259 -196 173 -175 192 -201 159 -234 -6 -6 -8 -15 -4 -19 4 -4 44
30 88 75 45 44 79 84 75 88 -4 4 -13 2 -19 -4 -30 -30 -65 -13 -153 70 l-86
81 34 35 c48 48 93 51 246 18 66 -14 132 -26 145 -26 15 0 38 16 66 46 23 25
40 48 37 50 -3 3 -22 0 -44 -6 -32 -10 -56 -7 -156 14 -65 14 -139 26 -163 26
-40 0 -44 2 -35 18 10 18 15 60 13 104 -2 27 -50 91 -81 107 -29 15 -85 19
-121 9z m43 -72 c55 -23 89 -69 95 -125 5 -55 -12 -93 -68 -146 l-30 -29 -106
104 -105 105 46 42 c64 59 113 73 168 49z"/>
<path d="M1805 1644 c15 -36 17 -62 6 -82 -17 -32 -300 -374 -322 -390 -14 -9
-32 -12 -56 -7 -23 4 -33 3 -29 -4 7 -11 320 -270 344 -285 7 -4 29 5 55 25
23 18 44 34 46 36 2 2 2 6 -1 9 -3 3 -25 0 -47 -7 -35 -10 -47 -10 -74 3 -54
26 -179 138 -173 155 3 8 40 56 82 108 l77 94 73 -61 c93 -77 98 -82 91 -117
-10 -47 3 -43 55 20 49 58 57 86 18 61 -33 -20 -50 -14 -121 43 -103 85 -102
70 -8 185 45 55 85 100 88 100 4 0 49 -34 100 -76 l93 -77 -5 -43 c-2 -24 -3
-44 -1 -44 9 0 63 65 63 75 0 9 -331 286 -352 294 -6 2 -7 -4 -2 -15z"/>
<path d="M6378 1282 c-100 -58 -121 -79 -69 -67 43 9 67 -18 182 -215 111
-190 116 -208 80 -279 -65 -125 -212 -151 -288 -51 -24 31 -175 292 -199 343
-17 36 -17 38 5 68 13 17 21 33 18 35 -5 5 -175 -92 -197 -113 -13 -13 -11
-14 20 -8 49 9 66 -10 178 -203 97 -168 142 -221 206 -242 108 -35 269 65 293
183 8 40 17 40 38 1 l18 -34 56 31 c31 17 63 38 71 46 13 14 11 15 -19 9 -29
-5 -38 -2 -63 26 -40 43 -258 426 -258 451 0 11 7 28 16 38 37 41 3 34 -88
-19z"/>
<path d="M2480 1144 c0 -3 9 -17 20 -31 11 -14 20 -33 20 -41 0 -25 -200 -455
-223 -480 -16 -17 -29 -22 -49 -18 -68 14 -25 -17 116 -82 194 -89 250 -106
335 -100 113 8 195 69 248 183 22 49 27 74 27 135 0 160 -70 242 -302 352
-162 77 -192 90 -192 82z m333 -194 c19 -16 45 -53 57 -82 47 -110 4 -275 -99
-371 -82 -77 -166 -85 -293 -28 -79 35 -94 56 -77 109 10 32 184 416 210 464
9 16 17 14 89 -22 43 -22 94 -53 113 -70z"/>
<path d="M5325 805 c-5 -2 -63 -18 -127 -36 -110 -29 -148 -49 -95 -49 49 0
54 -11 127 -277 68 -246 71 -275 35 -299 -51 -33 -11 -30 137 11 188 52 197
56 242 95 86 76 63 200 -46 254 -29 14 -65 26 -81 26 l-30 0 42 45 c36 39 41
50 41 91 0 95 -60 145 -172 143 -34 0 -67 -2 -73 -4z m116 -61 c56 -54 60
-140 8 -190 -29 -28 -129 -68 -140 -56 -7 8 -69 233 -69 249 0 15 78 32 128
28 31 -2 52 -11 73 -31z m78 -274 c68 -34 100 -134 66 -200 -17 -33 -48 -52
-111 -69 -50 -13 -70 -7 -88 28 -14 26 -66 206 -66 228 0 6 17 15 38 21 61 16
120 14 161 -8z"/>
<path d="M3420 771 c0 -5 9 -13 21 -16 35 -11 39 -45 19 -141 -58 -277 -91
-408 -106 -425 -9 -11 -27 -19 -40 -19 -31 0 -40 -18 -12 -25 101 -24 203 -43
208 -39 3 3 -7 15 -23 26 -18 13 -27 29 -27 46 0 46 100 485 116 509 10 15 24
23 44 23 33 0 41 15 13 24 -21 6 -200 46 -208 46 -3 0 -5 -4 -5 -9z"/>
<path d="M4022 658 c3 -7 19 -16 37 -21 55 -14 61 -43 61 -317 0 -227 -1 -241
-20 -260 -11 -11 -29 -20 -40 -20 -11 0 -20 -4 -20 -10 0 -6 40 -10 100 -10
98 0 130 12 70 25 -17 4 -35 16 -42 28 -14 27 -25 517 -11 502 6 -5 110 -130
232 -277 121 -148 225 -268 231 -268 6 0 10 102 10 288 0 313 3 332 56 332 13
0 24 5 24 10 0 6 -40 10 -100 10 -97 0 -131 -11 -71 -23 17 -4 34 -14 39 -24
6 -10 13 -117 17 -238 5 -181 4 -217 -7 -204 -7 8 -101 122 -208 252 l-194
237 -84 0 c-61 0 -83 -3 -80 -12z"/>
</g>
</svg>
