<?xml version="1.0" standalone="no"?>
<!DOCTYPE svg PUBLIC "-//W3C//DTD SVG 20010904//EN"
 "http://www.w3.org/TR/2001/REC-SVG-20010904/DTD/svg10.dtd">
<svg version="1.0" xmlns="http://www.w3.org/2000/svg"
 width="1024.000000pt" height="1024.000000pt" viewBox="0 0 1024.000000 1024.000000"
 preserveAspectRatio="xMidYMid meet">

<g transform="translate(0.000000,1024.000000) scale(0.100000,-0.100000)"
fill="#000000" stroke="none">
<path d="M4898 9453 c-54 -2 -98 -7 -98 -11 0 -4 15 -14 32 -22 22 -10 35 -25
39 -45 14 -58 30 -492 20 -519 -6 -14 -21 -28 -36 -32 -14 -3 -25 -11 -25 -17
0 -6 23 -8 68 -4 37 4 88 7 115 7 55 0 59 9 14 30 -40 19 -43 31 -56 313 -11
234 -8 260 34 279 29 13 33 29 8 26 -10 -1 -62 -4 -115 -5z"/>
<path d="M5400 9451 c0 -5 9 -13 20 -16 11 -4 28 -18 37 -32 10 -15 49 -161
88 -326 39 -166 76 -302 81 -304 6 -2 72 113 148 256 137 258 177 316 222 327
39 10 28 21 -28 28 -29 4 -70 10 -90 13 -43 6 -51 -8 -13 -25 15 -7 25 -20 25
-33 0 -18 -211 -431 -218 -425 -5 6 -102 430 -102 450 0 27 18 46 42 46 17 0
27 20 11 20 -5 0 -53 7 -108 15 -121 17 -115 17 -115 6z"/>
<path d="M4268 9377 c-80 -22 -100 -37 -50 -37 16 0 37 -9 47 -20 16 -17 130
-418 122 -426 -1 -2 -117 83 -256 188 l-254 191 -79 -18 c-80 -19 -110 -35
-64 -35 33 0 69 -17 84 -40 18 -29 122 -441 122 -483 0 -31 -5 -41 -30 -56
-16 -10 -27 -20 -24 -23 5 -5 32 0 158 33 43 12 40 23 -6 25 -16 1 -36 8 -44
16 -13 13 -139 476 -132 483 2 2 133 -93 292 -210 159 -118 292 -213 296 -210
3 2 -24 125 -62 272 -37 147 -68 280 -68 294 0 26 27 59 48 59 7 0 12 5 12 10
0 14 -23 11 -112 -13z"/>
<path d="M6386 9273 c-3 -3 6 -14 19 -25 15 -11 25 -30 25 -44 0 -13 -38 -129
-85 -257 -88 -242 -107 -274 -152 -262 -13 3 -23 1 -23 -5 0 -5 2 -10 3 -10 2
0 95 -34 207 -75 112 -41 208 -75 215 -75 14 0 80 89 72 96 -3 3 -23 -6 -44
-20 -48 -33 -63 -33 -170 5 -100 36 -113 44 -113 69 0 20 69 210 81 224 4 5
47 -5 99 -24 90 -32 120 -56 120 -92 0 -35 16 -17 38 45 29 81 29 97 -1 69
-13 -12 -33 -22 -44 -22 -33 0 -193 61 -193 74 0 24 85 246 95 246 16 0 217
-78 228 -89 6 -6 13 -27 16 -48 l7 -38 18 48 c11 28 15 51 10 56 -5 5 -65 29
-134 54 -69 25 -162 59 -206 76 -45 16 -84 27 -88 24z"/>
<path d="M3200 9010 c-86 -50 -116 -79 -67 -66 19 4 33 0 51 -16 35 -32 226
-377 226 -408 -1 -105 -133 -210 -228 -182 -56 17 -90 60 -190 239 -108 191
-113 205 -82 239 41 43 15 36 -89 -22 -56 -31 -99 -59 -96 -62 3 -4 21 -5 38
-4 22 2 38 -3 49 -15 8 -10 57 -92 108 -183 102 -183 133 -222 197 -246 112
-43 268 45 303 172 l13 46 20 -34 c12 -18 22 -35 24 -37 6 -8 133 64 133 74 0
6 -14 9 -33 7 -24 -3 -37 2 -53 20 -31 33 -244 415 -250 448 -5 20 0 34 15 49
47 47 16 41 -89 -19z"/>
<path d="M7260 8891 c0 -5 7 -11 15 -15 36 -14 15 -63 -104 -247 -66 -101
-134 -201 -152 -223 -28 -34 -36 -38 -66 -33 -20 4 -33 2 -31 -4 4 -11 180
-130 186 -125 2 3 -4 16 -13 30 -23 35 -16 57 55 165 l60 92 31 -21 c59 -43
64 -59 69 -239 l5 -165 55 -39 c57 -39 73 -37 44 7 -13 21 -17 55 -19 179 -1
83 -5 160 -10 170 -7 16 -3 17 33 11 54 -8 105 10 141 51 55 64 51 150 -12
222 -30 35 -258 193 -278 193 -5 0 -9 -4 -9 -9z m217 -163 c29 -30 37 -46 41
-87 4 -43 0 -57 -22 -91 -34 -51 -77 -74 -130 -68 -42 5 -136 55 -136 73 0 5
35 62 77 126 l78 117 28 -16 c15 -9 44 -33 64 -54z"/>
<path d="M4875 8543 c-69 -6 -326 -43 -405 -57 -86 -16 -298 -71 -350 -91 -19
-8 -53 -19 -76 -25 -59 -15 -362 -152 -468 -212 -265 -150 -306 -178 -576
-387 -101 -78 -417 -393 -522 -521 -100 -121 -228 -307 -294 -425 -81 -146
-213 -424 -252 -530 -68 -188 -144 -480 -162 -630 -5 -38 -16 -124 -24 -190
-30 -227 -18 -613 30 -950 29 -208 100 -461 200 -717 65 -166 235 -481 318
-591 34 -44 75 -99 91 -121 91 -127 300 -358 412 -458 54 -48 142 -127 196
-175 91 -81 139 -116 294 -215 174 -109 453 -255 578 -301 239 -88 357 -127
410 -137 33 -7 94 -20 135 -30 71 -18 176 -33 440 -62 168 -19 513 -16 700 6
239 27 420 71 760 183 107 35 465 213 595 296 165 105 408 290 514 392 146
139 353 368 457 506 10 14 46 61 79 105 51 67 151 235 241 404 122 229 246
613 289 900 49 328 69 787 42 975 -9 61 -21 153 -27 205 -30 261 -128 582
-261 860 -164 343 -273 524 -417 691 -31 37 -85 100 -119 140 -172 203 -412
412 -698 607 -72 50 -362 203 -514 272 -228 104 -588 203 -916 254 -153 23
-577 41 -700 29z m495 -163 c145 -11 211 -20 305 -39 28 -6 79 -15 115 -20 46
-6 -39 -9 -298 -9 -199 -1 -367 -4 -372 -7 -6 -4 -152 -3 -326 1 -184 4 -310
11 -301 16 24 13 236 45 387 58 74 7 140 14 145 16 12 5 151 -2 345 -16z m750
-140 c32 -16 67 -27 143 -44 15 -4 27 -11 27 -17 0 -8 -30 -9 -102 -3 -57 4
-110 7 -118 7 -237 -10 -1645 -16 -1815 -9 -22 1 -83 3 -135 5 l-95 3 65 30
c123 58 78 56 1075 50 851 -4 923 -6 955 -22z m-1365 -111 c374 -1 903 -1
1176 0 l495 2 60 -26 c32 -15 75 -34 94 -43 l35 -16 -85 -7 c-47 -4 -643 -5
-1325 -3 -682 3 -1298 4 -1369 3 -85 0 -126 3 -122 9 8 14 122 72 161 83 17 4
68 6 115 4 47 -3 391 -5 765 -6z m-95 -141 c30 -1 508 -1 1062 0 l1007 3 51
-33 c27 -18 50 -36 50 -39 0 -4 -15 -9 -32 -13 -54 -9 -1576 -11 -2633 -3
-740 5 -681 3 -664 23 15 18 83 56 119 66 20 5 776 2 1040 -4z m745 -127 c781
1 1440 2 1465 2 36 0 57 -8 103 -38 31 -21 57 -41 57 -45 0 -11 -498 -15
-1665 -13 -1498 1 -2017 4 -2042 10 -29 7 -23 16 36 56 l48 32 289 -3 c159 -1
928 -2 1709 -1z m1757 -171 l43 -35 -130 -8 c-71 -4 -818 -6 -1660 -5 -841 1
-1705 2 -1918 1 -213 0 -387 3 -385 7 2 5 23 24 47 43 l44 35 1958 -2 1958 -2
43 -34z m-1375 -93 l1482 0 27 -28 c15 -16 25 -31 22 -34 -16 -16 -2309 -35
-3023 -24 -126 1 -479 3 -782 3 -405 1 -553 4 -553 12 0 7 17 25 38 40 36 28
40 29 197 35 88 3 374 4 635 1 261 -2 1142 -5 1957 -5z m-357 -184 c856 4
1891 -9 1901 -24 6 -10 4 -987 -6 -2474 -13 -2047 -9 -1925 -60 -2024 -45 -90
-176 -190 -325 -248 -233 -91 -485 -144 -830 -173 -389 -33 -667 -95 -760
-169 -19 -15 -49 -35 -67 -44 -46 -24 -102 -95 -149 -188 l-40 -80 -36 53
c-153 228 -443 355 -898 394 -338 29 -694 77 -803 109 -198 57 -298 112 -373
206 -113 139 -128 234 -120 749 3 201 6 516 6 700 1 184 5 614 10 955 14 914
20 1454 20 1877 l0 377 23 4 c12 3 483 3 1047 1 564 -2 1221 -2 1460 -1z
m2140 -100 c0 -8 -12 -13 -30 -13 -29 0 -30 2 -30 42 l0 42 30 -29 c17 -16 30
-35 30 -42z m-4782 5 c-3 -29 -7 -33 -35 -36 -40 -4 -41 3 -6 40 35 36 45 35
41 -4z m-17 -78 c16 0 19 -8 19 -45 l0 -45 -91 0 c-100 0 -100 -1 -40 63 30
32 41 37 65 33 16 -3 37 -6 47 -6z m4868 -25 c49 -57 43 -69 -30 -61 -34 3
-70 6 -80 6 -16 0 -19 8 -19 45 l0 45 49 0 c43 0 52 -4 80 -35z m-4849 -149
l0 -45 -129 -3 c-172 -4 -167 -6 -140 42 25 44 30 45 187 48 l82 2 0 -44z
m4970 12 c34 -57 32 -58 -103 -58 -136 0 -147 4 -147 57 l0 33 115 0 115 0 20
-32z m-4977 -107 c10 -1 9 -79 -2 -86 -11 -6 -361 -9 -367 -2 -9 9 39 79 60
87 16 7 226 7 309 1z m5064 -30 c41 -61 37 -63 -99 -61 -68 1 -149 5 -180 7
l-58 5 0 37 c0 21 3 41 7 45 4 3 74 5 157 4 l150 -3 23 -34z m74 -110 c3 -3
16 -23 28 -43 l22 -37 -228 2 -228 2 -3 46 -3 46 203 -5 c112 -2 206 -7 209
-11z m-5131 -30 c0 -22 -5 -43 -12 -47 -9 -6 -165 -7 -446 -4 -10 0 -9 7 3 29
31 62 28 61 251 61 l204 0 0 -39z m-25 -101 c23 -9 26 -15 23 -47 l-3 -38
-254 2 c-147 1 -257 5 -263 11 -11 11 15 68 34 75 27 9 438 7 463 -3z m5242
-25 c10 -22 13 -39 7 -44 -10 -11 -65 -13 -321 -12 l-183 1 0 45 0 45 240 0
240 0 17 -35z m-5244 -109 c25 -8 28 -12 25 -45 l-3 -36 -260 -3 c-143 -2
-275 0 -292 3 -37 7 -41 21 -19 63 l14 28 254 -1 c139 -1 266 -5 281 -9z
m5294 2 c6 -7 15 -27 21 -44 l10 -31 -61 -5 c-121 -8 -506 -3 -515 7 -15 15
-2 73 17 78 9 3 129 5 267 6 191 1 254 -2 261 -11z m-120 -128 l182 0 12 -40
c7 -22 10 -43 7 -46 -3 -3 -145 -6 -314 -7 l-309 -2 -3 47 c-3 44 -2 47 25 51
15 3 71 3 123 1 52 -2 177 -4 277 -4z m-5158 -14 c7 -8 11 -30 9 -48 l-3 -33
-324 2 c-177 1 -325 3 -327 5 -2 2 6 23 17 46 l21 42 298 0 c246 0 300 -2 309
-14z m-11 -131 c7 -3 12 -21 12 -45 l0 -40 -347 2 -348 3 3 25 c2 14 10 35 17
46 14 21 17 21 332 17 175 -2 324 -6 331 -8z m5416 -26 c13 -32 14 -44 5 -49
-9 -6 -639 -7 -671 -1 -5 0 -8 19 -8 41 l0 39 63 3 c34 2 182 4 328 6 l266 3
17 -42z m-5417 -110 c17 -6 23 -16 23 -38 0 -16 -5 -33 -11 -36 -21 -14 -736
2 -744 16 -6 9 13 62 25 69 14 9 682 -1 707 -11z m5457 6 c19 -20 30 -55 19
-65 -4 -5 -170 -10 -368 -12 l-360 -3 -3 42 -3 43 308 3 c169 1 327 3 350 5
26 1 47 -3 57 -13z m-5476 -131 l43 -5 -3 -42 -3 -42 -190 -1 c-246 0 -592 9
-599 17 -9 8 12 62 28 74 14 11 645 10 724 -1z m5512 1 c6 -7 15 -27 19 -43 8
-27 6 -31 -14 -36 -39 -10 -747 -8 -757 2 -5 5 -8 25 -6 43 l3 34 210 5 c398
10 534 8 545 -5z m-5628 -134 c126 -1 138 -3 148 -21 6 -11 8 -30 5 -43 l-6
-24 -387 4 c-213 2 -397 6 -409 9 -25 5 -30 32 -13 64 10 18 23 19 268 16 141
-2 319 -4 394 -5z m5666 1 c7 -5 15 -25 19 -45 l6 -37 -387 -2 c-212 -1 -394
-2 -403 -2 -13 -1 -19 8 -21 32 -6 66 -30 62 390 62 211 0 389 -4 396 -8z
m-5540 -138 c18 -4 22 -11 22 -46 l0 -41 -332 6 c-183 4 -377 7 -432 7 l-98 0
6 33 c12 60 4 59 426 52 212 -3 395 -8 408 -11z m5559 7 c23 -6 29 -14 31 -41
2 -18 -1 -36 -7 -39 -14 -9 -805 -6 -819 3 -7 4 -12 22 -12 41 0 32 2 34 38
38 70 7 741 6 769 -2z m-5544 -141 c5 -4 5 -24 1 -44 l-6 -37 -337 5 c-185 3
-380 5 -433 5 -98 1 -98 1 -98 26 0 14 8 33 19 44 18 18 38 18 432 14 228 -3
418 -9 422 -13z m5587 0 c5 -8 10 -27 10 -42 l0 -28 -107 -1 c-60 -1 -237 -2
-395 -4 -157 -2 -301 0 -320 4 -30 6 -33 10 -33 41 0 35 1 35 50 40 28 3 216
5 418 5 316 0 369 -2 377 -15z m-5747 -119 l157 -1 0 -51 c0 -27 -4 -48 -9
-45 -5 3 -197 6 -427 6 -231 0 -425 5 -433 9 -23 14 -6 79 22 83 20 4 160 3
690 -1z m5732 1 c27 -8 30 -13 30 -48 l0 -39 -432 -3 -433 -2 0 39 c0 24 6 43
14 48 20 11 783 16 821 5z m-5583 -143 c13 -7 18 -21 18 -51 l0 -41 -441 5
c-277 3 -444 9 -450 15 -6 6 -9 26 -7 44 3 33 5 34 53 39 88 9 808 -1 827 -11z
m5628 -33 l0 -44 -87 -6 c-49 -3 -245 -5 -438 -4 l-350 3 -3 47 -3 48 198 2
c109 2 307 2 441 0 l242 -3 0 -43z m-5713 -102 c99 -6 110 -13 92 -60 l-9 -27
-436 7 c-239 3 -439 8 -445 11 -11 7 -12 68 -2 79 8 7 643 -1 800 -10z m5721
-30 l3 -41 -48 -6 c-26 -4 -229 -7 -450 -7 l-403 0 0 40 c0 22 1 41 3 42 3 2
725 14 817 14 l75 -1 3 -41z m-5635 -104 c5 -4 7 -25 5 -46 l-3 -39 -300 1
c-165 1 -362 2 -438 3 l-137 1 -11 27 c-7 19 -7 35 0 50 l10 23 433 -6 c238
-3 437 -9 441 -14z m5622 4 c11 -12 14 -25 9 -48 -3 -17 -8 -33 -11 -36 -3 -3
-198 -5 -434 -5 -473 1 -449 -3 -449 62 l0 33 398 3 c218 1 414 3 434 5 23 1
43 -4 53 -14z m-5917 -131 l302 -6 0 -42 0 -42 -325 -7 c-330 -7 -530 -1 -552
17 -14 10 -18 69 -6 80 8 9 198 9 581 0z m5913 -10 c19 -19 3 -80 -24 -87 -29
-8 -238 -7 -579 1 l-278 6 0 43 0 43 43 3 c23 2 218 3 434 3 287 0 395 -3 404
-12z m-5683 -132 l72 -1 0 -40 0 -40 -57 -1 c-222 -6 -799 3 -810 13 -7 6 -13
23 -13 39 l0 28 93 3 c89 3 566 2 715 -1z m5410 1 l262 -2 0 -39 c0 -29 -5
-41 -17 -44 -25 -7 -726 -7 -795 -1 -53 6 -58 8 -58 31 0 57 4 58 182 57 89 0
281 -2 426 -2z m-5510 -130 l173 -2 -3 -42 -3 -43 -400 -3 c-262 -2 -409 0
-427 7 -23 9 -28 17 -28 45 0 19 5 36 12 38 11 4 287 4 676 0z m5615 -2 l147
0 0 -33 c0 -18 -5 -38 -12 -45 -9 -9 -106 -12 -377 -12 -202 0 -390 3 -419 7
l-53 6 3 36 3 36 185 6 c102 3 228 4 280 3 52 -2 161 -4 243 -4z m-5683 -133
l235 -2 3 -42 3 -43 -203 -1 c-360 -3 -612 3 -625 13 -7 6 -13 26 -13 44 l0
33 143 3 c78 2 160 2 182 0 22 -2 146 -4 275 -5z m5799 -6 c10 -6 12 -19 7
-44 l-7 -35 -137 -7 c-75 -4 -243 -5 -372 -1 -129 3 -254 6 -277 6 l-43 0 0
38 c0 21 3 41 6 45 10 9 808 8 823 -2z m-5578 -131 c25 -14 26 -66 1 -74 -14
-5 -738 -11 -779 -7 -18 2 -36 73 -20 83 19 12 775 10 798 -2z m5566 -3 c3 -3
1 -23 -4 -44 l-9 -38 -189 -2 c-105 -2 -286 0 -402 4 l-213 6 0 43 0 43 406
-3 c223 -2 408 -6 411 -9z m-5557 -133 c6 -6 10 -24 8 -40 l-3 -29 -95 -8
c-52 -4 -223 -5 -380 -2 -311 6 -310 6 -310 65 l0 26 385 0 c271 -1 387 -4
395 -12z m5519 7 c10 -1 12 -10 7 -33 -12 -60 1 -58 -361 -58 -183 0 -353 3
-379 6 l-46 7 0 41 0 41 383 -2 c210 0 388 -2 396 -2z m-5519 -130 c3 -1 3
-22 1 -47 l-3 -46 -347 5 c-190 3 -354 8 -363 12 -22 9 -42 64 -25 70 7 2 19
6 27 8 11 4 684 1 710 -2z m5203 -1 c290 0 287 1 273 -54 -5 -19 -15 -26 -43
-30 -37 -6 -449 -11 -609 -8 -78 2 -82 3 -88 27 -4 14 -3 37 0 51 l7 27 96 -7
c53 -3 217 -6 364 -6z m-5378 -139 l170 -6 3 -37 c2 -28 -1 -37 -15 -41 -10
-3 -115 -4 -233 -3 -118 2 -261 4 -318 5 l-103 1 -15 35 c-18 44 -18 53 4 58
17 5 163 1 507 -12z m5611 -23 c-13 -64 -4 -63 -361 -66 l-324 -3 -7 24 c-15
61 -13 62 161 67 88 3 245 7 349 8 l189 2 -7 -32z m-5467 -114 c28 -6 31 -10
31 -46 l0 -40 -247 2 c-137 1 -276 4 -310 7 -56 5 -63 8 -73 33 -7 16 -9 34
-5 39 7 12 548 16 604 5z m5408 -11 c6 -14 -15 -73 -26 -73 -3 -1 -140 -3
-303 -6 -295 -5 -296 -5 -303 16 -4 12 -4 32 -1 45 8 31 14 32 350 31 221 0
279 -3 283 -13z m-5399 -129 c18 -5 22 -13 22 -45 l0 -39 -172 1 c-95 1 -220
4 -278 8 l-105 6 -17 35 c-14 26 -15 36 -5 43 13 9 518 1 555 -9z m5335 -23
c-2 -59 -3 -59 -300 -66 l-273 -7 0 41 c0 22 6 43 13 48 9 6 452 22 542 19 16
-1 20 -7 18 -35z m-5455 -107 c129 -6 132 -7 138 -30 14 -55 15 -55 -243 -52
l-237 3 -23 34 c-45 66 -68 63 365 45z m5399 -7 c9 -10 -18 -67 -38 -77 -20
-11 -373 -12 -434 -2 -38 7 -40 9 -40 42 l0 35 80 5 c107 7 424 4 432 -3z
m-5261 -142 c3 -12 4 -34 2 -46 -3 -24 -3 -24 -193 -30 -211 -7 -205 -9 -243
60 l-22 39 225 0 225 1 6 -24z m5181 6 c19 -10 -39 -88 -69 -93 -13 -2 -97 2
-188 7 l-165 10 -3 35 c-2 21 2 38 11 45 16 11 393 8 414 -4z m-5187 -160 c0
-32 -4 -40 -22 -44 -19 -5 -125 -9 -242 -10 -20 0 -37 9 -53 27 -49 57 -37 61
190 64 l127 2 0 -39z m5068 23 c39 -6 40 -15 5 -54 l-28 -30 -140 7 -140 8 -3
28 c-7 56 -5 57 140 51 73 -3 148 -7 166 -10z m-5065 -124 c5 -4 7 -23 5 -41
l-3 -34 -107 -3 -106 -3 -31 38 c-33 39 -39 58 -18 50 6 -2 55 -1 107 3 95 6
138 4 153 -10z m4925 4 c51 -4 92 -10 92 -15 0 -4 -11 -21 -25 -37 -29 -35
-66 -43 -169 -35 l-76 6 0 37 c0 20 3 40 7 43 8 9 55 9 171 1z m-4917 -151 c5
-15 8 -38 4 -50 -5 -20 -12 -23 -56 -23 -46 0 -55 4 -90 39 -22 21 -39 44 -39
50 0 7 29 11 85 11 84 0 86 -1 96 -27z m4887 12 c19 -7 14 -21 -19 -54 -23
-24 -39 -31 -69 -31 -58 0 -67 6 -62 43 6 46 27 58 87 51 27 -3 56 -7 63 -9z
m-4874 -141 c3 -9 6 -30 6 -47 l0 -31 -40 39 c-22 21 -40 43 -40 47 0 16 68 8
74 -8z m4786 4 c0 -12 -83 -94 -111 -108 -13 -7 -11 0 6 34 12 24 25 53 28 65
4 16 13 21 41 21 21 0 36 -5 36 -12z m-552 -484 c-34 -30 -44 -34 -95 -34 -68
0 -62 10 27 39 36 12 72 25 80 31 31 19 23 -3 -12 -36z m-3633 -14 l120 -28
-82 -1 c-86 -1 -120 7 -161 39 -32 26 -21 25 123 -10z m3495 -67 c0 -5 -28
-26 -62 -48 l-62 -40 -186 -2 c-102 -1 -228 -2 -280 -3 -326 -7 -499 10 -239
23 131 7 258 20 404 43 55 8 163 19 240 23 77 5 150 9 163 10 12 0 22 -2 22
-6z m-2995 -24 c139 -10 547 -60 541 -66 -7 -7 -763 -5 -836 2 -72 7 -120 26
-175 69 -18 15 -5 16 155 11 96 -3 238 -10 315 -16z m765 -135 c66 -19 143
-61 135 -75 -4 -6 -74 -7 -183 -4 -97 4 -325 7 -507 8 l-330 2 -70 38 c-38 22
-74 42 -78 46 -4 5 214 6 485 4 411 -3 502 -6 548 -19z m1982 8 c-12 -10 -62
-35 -109 -56 l-87 -38 -475 0 c-262 0 -492 5 -511 10 l-35 8 80 40 80 39 155
5 c85 3 328 6 540 7 369 3 384 2 362 -15z m-1938 -131 l178 -1 40 -40 c22 -21
37 -44 33 -50 -14 -22 -770 -1 -846 24 -24 8 -61 18 -82 22 -21 3 -60 15 -85
25 l-47 18 125 3 c69 2 211 3 315 2 105 -1 270 -2 369 -3z m1622 -14 c2 -2
-38 -20 -89 -40 l-92 -37 -235 -4 c-129 -3 -296 -8 -371 -12 -144 -7 -229 0
-229 19 0 7 11 25 24 42 19 24 34 30 77 36 55 6 908 3 915 -4z m-1556 -137
c51 -5 122 -6 156 -3 54 5 64 3 82 -15 22 -22 39 -68 29 -78 -3 -3 -31 -1 -63
4 -33 6 -108 15 -169 21 -231 24 -507 70 -524 87 -7 8 358 -4 489 -16z m1151
-1 c-13 -5 -65 -19 -115 -30 -177 -41 -300 -58 -423 -59 -122 0 -123 0 -123
23 0 13 6 32 14 43 13 17 31 20 203 25 328 9 470 9 444 -2z"/>
<path d="M3285 7341 l-300 -6 -6 -320 c-11 -540 -19 -1182 -24 -2065 -3 -465
-10 -984 -14 -1155 -10 -380 0 -756 23 -838 37 -134 92 -199 226 -267 157 -79
265 -104 645 -149 188 -23 211 -25 404 -40 182 -15 282 -33 409 -77 172 -59
284 -125 374 -222 31 -34 61 -62 66 -62 5 0 26 25 47 56 71 102 237 211 380
248 230 60 317 74 625 102 317 29 442 52 652 120 224 74 384 183 423 289 16
45 19 102 25 535 10 651 15 3828 7 3837 -7 6 -844 15 -1337 13 -809 -2 -2134
0 -2240 3 -47 2 -220 1 -385 -2z m2773 -364 c-711 -716 -873 -877 -878 -877
-4 0 -5 37 -3 82 3 81 3 82 45 126 24 24 59 51 78 59 69 28 156 95 183 139 63
104 69 230 15 305 l-29 40 23 32 c12 18 57 71 100 120 43 48 78 91 78 96 0 5
19 24 43 42 24 19 64 59 88 89 43 52 48 55 100 61 29 3 149 6 266 7 l211 1
-320 -322z m-1494 160 c82 -84 174 -178 204 -209 l54 -57 -35 -42 c-61 -71
-72 -170 -31 -273 27 -69 52 -93 163 -161 35 -22 83 -63 106 -91 36 -45 43
-62 49 -114 4 -34 10 -68 13 -76 17 -46 -51 14 -287 252 -146 147 -410 412
-587 590 -178 179 -323 327 -323 330 0 2 118 4 263 4 l262 -1 149 -152z m263
138 c31 -22 133 -236 133 -280 0 -69 -32 -43 -181 142 -43 54 -79 105 -79 115
0 10 13 20 38 26 53 14 65 14 89 -3z m251 5 l25 0 -7 -157 c-4 -87 -9 -159
-11 -161 -9 -9 -28 14 -56 71 -17 34 -39 71 -50 82 -29 32 -61 114 -55 140 7
28 27 35 85 29 24 -2 55 -4 69 -4z m-441 -32 c17 -18 42 -49 55 -68 27 -41 95
-123 156 -188 43 -47 53 -72 27 -72 -22 0 -125 96 -162 151 -18 26 -42 50 -53
54 -11 4 -28 19 -37 33 -9 15 -30 41 -46 59 -18 19 -27 38 -24 47 10 26 51 18
84 -16z m673 -83 c-78 -159 -123 -203 -132 -132 -8 58 -1 151 15 192 14 38 18
40 64 46 26 3 62 7 79 7 l31 2 -57 -115z m233 88 c-11 -16 -37 -55 -58 -88
-22 -33 -53 -70 -68 -83 -15 -14 -35 -38 -43 -54 -15 -30 -49 -49 -71 -41 -14
6 30 78 53 87 8 3 14 12 14 19 0 8 6 20 14 26 8 7 17 23 20 37 10 37 103 124
133 124 l24 0 -18 -27z m177 22 c0 -2 -20 -23 -45 -46 -25 -23 -62 -64 -81
-91 -35 -48 -60 -60 -70 -35 -9 23 14 65 46 83 16 10 42 35 55 56 21 32 31 38
60 38 19 0 35 -2 35 -5z m-230 -244 c0 -11 -11 -33 -25 -48 l-24 -28 -1 24 c0
14 10 35 22 48 26 28 28 28 28 4z m-443 -168 c7 -19 -47 -73 -74 -73 -17 0
-63 37 -63 52 0 4 8 8 18 9 9 0 33 6 52 13 48 19 60 19 67 -1z m214 -24 c32
-12 56 -25 54 -30 -3 -4 -18 -17 -34 -28 l-28 -20 -36 33 c-36 33 -49 66 -26
66 7 0 38 -10 70 -21z m-357 -63 c19 -25 19 -29 5 -54 -8 -15 -24 -28 -35 -30
-18 -3 -22 3 -27 45 -8 75 17 93 57 39z m276 -11 c36 -37 33 -52 -25 -95 -44
-33 -57 -32 -77 10 -25 51 -23 85 7 108 31 25 54 19 95 -23z m248 -4 c7 -21
12 -45 12 -53 0 -20 -46 -62 -59 -53 -12 7 -15 127 -4 138 18 19 41 5 51 -32z
m-398 -99 c22 -22 40 -44 40 -51 0 -18 -61 -71 -82 -71 -23 0 -48 38 -48 73 0
31 25 87 40 87 5 0 27 -17 50 -38z m-214 -27 c-10 -27 -31 -11 -34 26 l-3 34
22 -22 c13 -13 19 -28 15 -38z m480 0 c10 -15 14 -34 10 -47 -7 -27 -52 -62
-66 -53 -15 9 -12 41 5 55 11 9 14 22 10 42 -8 36 18 39 41 3z m174 -23 c0 -5
-9 -17 -20 -27 -16 -14 -20 -15 -20 -4 0 16 19 39 32 39 4 0 8 -4 8 -8z m-555
-63 l40 -40 -28 -25 c-36 -30 -45 -30 -57 2 -12 30 -13 104 -2 104 4 0 26 -18
47 -41z m230 -10 c43 -38 44 -64 4 -88 -29 -18 -34 -18 -55 -4 -20 12 -24 24
-24 62 0 72 18 79 75 30z m225 -54 c0 -12 -21 -25 -41 -25 -13 0 -11 24 2 37
14 14 39 6 39 -12z m-355 -42 c32 -37 31 -47 -2 -38 -36 8 -57 29 -50 49 9 23
25 20 52 -11z m221 -8 c19 -15 19 -15 0 -30 -41 -31 -82 -10 -50 26 21 23 25
23 50 4z m-1936 -422 c150 -153 308 -309 351 -348 151 -137 499 -504 499 -526
0 -20 -381 -414 -650 -673 -52 -50 -185 -183 -296 -294 -110 -111 -203 -199
-207 -196 -3 3 -4 164 -1 358 2 193 6 711 9 1151 2 440 4 801 5 803 2 14 55
-37 290 -275z m3905 -881 c-2 -618 -7 -1127 -10 -1130 -3 -4 -81 70 -173 163
-91 94 -343 348 -559 566 -216 217 -393 400 -393 406 0 21 1123 1144 1131
1131 4 -6 6 -518 4 -1136z m-2446 896 c121 -21 252 -84 293 -141 22 -31 23
-41 26 -252 5 -298 -14 -981 -28 -1027 -6 -21 -13 -38 -16 -38 -3 0 -30 17
-60 39 -96 69 -312 114 -444 92 -36 -6 -69 -11 -73 -11 -8 0 1 1319 10 1333
17 27 148 30 292 5z m990 -14 c9 -8 13 -581 6 -927 l-7 -389 -22 7 c-51 16
-155 17 -231 2 -78 -15 -188 -60 -272 -113 l-43 -26 -11 29 c-19 46 -27 276
-24 628 5 404 18 617 39 650 35 54 160 104 334 135 92 16 214 18 231 4z
m-1344 -675 l-5 -651 -43 -52 c-24 -28 -51 -64 -59 -80 l-15 -29 -7 34 c-9 52
-6 749 5 1044 8 201 14 265 26 283 21 34 84 102 94 102 4 0 6 -293 4 -651z
m1432 411 l6 -25 7 30 c4 17 8 58 9 93 0 34 6 62 11 62 6 0 10 -68 10 -184 0
-120 4 -187 11 -191 6 -4 12 -5 15 -2 2 2 7 70 11 151 3 81 9 149 14 151 11 7
22 -217 15 -299 -3 -39 -6 -272 -7 -518 0 -246 -4 -450 -8 -453 -13 -7 -21
172 -20 418 1 146 -2 222 -10 230 -20 20 -26 -4 -23 -96 2 -51 4 -104 4 -119
-1 -220 -9 -355 -21 -343 -3 4 -8 95 -11 203 -6 244 -23 264 -31 37 -3 -88 -7
-162 -8 -165 -12 -23 -15 81 -10 265 4 121 7 378 8 571 1 193 4 354 9 358 4 4
8 -27 10 -71 1 -43 5 -89 9 -103z m-111 -1106 c49 -25 134 -113 134 -139 0
-11 -44 -14 -232 -18 -254 -5 -384 -14 -406 -26 -8 -5 -16 -21 -18 -36 -6 -59
-59 -102 -109 -89 -32 8 -62 42 -72 84 l-9 35 -347 3 c-343 2 -347 3 -347 23
0 33 105 135 158 153 68 24 183 20 307 -9 125 -30 148 -40 237 -112 37 -29 74
-53 82 -53 8 0 25 11 38 24 55 58 232 142 361 170 102 23 166 20 223 -10z
m-346 -689 l255 -255 -107 0 c-60 0 -110 -4 -113 -10 -3 -5 19 -42 49 -81 31
-39 56 -77 56 -85 0 -11 -22 -14 -110 -14 -63 0 -110 4 -110 9 0 6 16 36 35
68 37 62 44 97 21 106 -23 9 -371 11 -384 3 -19 -11 -15 -20 34 -92 67 -97 67
-94 -12 -93 -38 1 -95 4 -128 8 l-59 6 67 80 67 80 -28 6 c-15 4 -90 7 -165 8
-76 0 -138 4 -138 8 0 12 493 503 505 503 5 0 125 -115 265 -255z m347 -326
c14 -27 19 -344 6 -352 -12 -7 -379 -11 -767 -9 -351 2 -376 5 -376 38 0 12
92 14 548 16 l547 3 3 168 c2 128 5 168 15 164 6 -2 18 -14 24 -28z m-906 3
c-20 -38 -110 -112 -136 -112 -14 0 -25 4 -25 9 0 19 124 121 147 121 20 0 22
-3 14 -18z m478 -4 c-28 -53 -70 -107 -89 -113 -38 -12 -41 5 -9 53 48 71 60
82 86 82 21 0 23 -2 12 -22z m-786 -157 l-6 -139 28 -49 c16 -26 33 -51 39
-55 6 -4 59 -8 119 -8 76 0 107 -3 107 -12 0 -16 -91 -250 -102 -263 -5 -5
-48 -12 -96 -15 l-87 -5 -3 -190 c-1 -104 -6 -193 -10 -197 -13 -13 -527 26
-682 52 -30 5 -104 17 -165 26 -60 9 -114 19 -118 21 -10 6 964 979 975 975 4
-1 4 -65 1 -141z m1709 -363 c229 -233 414 -426 409 -431 -9 -9 -91 -30 -196
-50 -141 -28 -625 -71 -638 -58 -8 8 -12 58 -13 144 0 73 -1 151 -2 175 l-2
42 -84 0 c-76 0 -86 2 -100 22 -9 12 -16 28 -16 35 0 8 -16 54 -36 104 -19 51
-33 97 -30 104 3 8 43 14 129 17 68 3 129 8 135 12 8 5 12 54 12 157 0 82 3
149 8 149 4 1 195 -190 424 -422z m-739 -29 c54 -148 52 -139 28 -139 -27 0
-43 27 -81 133 -25 71 -29 92 -19 103 7 8 17 13 23 11 6 -2 28 -50 49 -108z
m247 -364 l0 -145 -26 -10 c-14 -6 -27 -10 -30 -10 -7 0 -5 296 3 303 3 4 17
7 30 7 l23 0 0 -145z m-586 105 c37 -14 32 -32 -13 -51 -50 -21 -81 -83 -81
-161 0 -30 -3 -89 -6 -131 l-7 -77 -102 0 c-95 0 -107 2 -171 33 l-69 32 135
5 135 5 7 105 c9 141 14 164 45 201 39 46 78 58 127 39z m58 -207 c-4 -77 4
-127 29 -191 13 -32 12 -33 -26 -70 -22 -20 -60 -59 -84 -85 l-43 -49 -28 34
c-15 19 -44 42 -64 53 -20 11 -36 23 -36 27 0 5 24 8 53 8 101 0 97 -5 97 134
0 151 17 220 58 234 41 15 49 -4 44 -95z m218 -138 c0 -3 -25 -16 -56 -30 -60
-27 -84 -22 -84 16 0 17 8 19 70 19 39 0 70 -2 70 -5z"/>
<path d="M4534 5775 c-10 -25 3 -44 33 -50 53 -10 238 -63 294 -84 30 -12 81
-37 113 -56 64 -38 76 -42 76 -21 0 37 -195 139 -365 191 -131 39 -143 41
-151 20z"/>
<path d="M4553 5414 c-16 -7 -17 -50 -2 -60 6 -4 46 -10 88 -15 93 -9 230 -59
320 -118 70 -45 81 -48 81 -27 0 30 -170 135 -301 186 -74 28 -162 45 -186 34z"/>
<path d="M4546 5028 c-35 -20 -12 -68 34 -68 62 0 264 -50 341 -85 46 -20 93
-39 104 -42 18 -5 17 -3 -5 21 -36 40 -93 71 -215 117 -123 46 -234 71 -259
57z"/>
<path d="M5487 5750 c-54 -21 -119 -51 -145 -66 -59 -34 -132 -92 -132 -105 0
-15 32 -3 106 41 37 21 125 57 196 80 116 38 129 44 126 63 -5 33 -41 30 -151
-13z"/>
<path d="M5470 5391 c-150 -62 -196 -86 -247 -128 -75 -60 -51 -72 43 -20 32
17 126 55 209 82 149 50 150 51 150 80 0 44 -22 42 -155 -14z"/>
<path d="M5495 5046 c-156 -58 -336 -169 -313 -192 3 -2 44 16 91 40 89 47
151 68 276 95 75 16 100 34 88 65 -9 23 -69 20 -142 -8z"/>
<path d="M5830 5675 c0 -8 5 -15 10 -15 6 0 10 7 10 15 0 8 -4 15 -10 15 -5 0
-10 -7 -10 -15z"/>
<path d="M5827 5523 c-10 -10 -8 -313 2 -313 17 0 21 32 21 163 0 123 -7 167
-23 150z"/>
<path d="M5887 5449 c-3 -11 -3 -52 0 -91 7 -86 24 -77 30 19 4 53 2 71 -10
81 -12 10 -16 9 -20 -9z"/>
<path d="M8044 8211 c-93 -42 -123 -136 -90 -279 9 -39 16 -98 16 -131 0 -52
-4 -65 -27 -91 -60 -67 -153 -43 -201 50 -27 52 -24 105 8 150 36 51 7 41 -52
-17 -32 -32 -58 -61 -58 -65 0 -4 9 -8 20 -8 14 0 27 -15 45 -50 59 -117 156
-165 253 -125 109 46 134 131 92 315 -11 47 -20 98 -20 113 0 48 30 98 68 114
31 13 37 12 76 -7 47 -22 86 -79 86 -125 0 -15 -7 -42 -16 -61 -25 -53 -9 -53
46 1 54 53 60 65 32 65 -11 0 -25 14 -34 33 -25 52 -69 98 -113 118 -51 23
-79 23 -131 0z"/>
<path d="M1796 7885 c-80 -96 -146 -179 -146 -184 0 -6 13 -3 29 7 27 15 32
15 63 0 41 -21 364 -293 392 -330 17 -23 18 -31 7 -54 -6 -15 -10 -29 -7 -31
2 -3 70 74 151 171 106 127 145 180 141 193 -9 27 -63 89 -71 81 -4 -3 -2 -15
4 -26 22 -40 13 -88 -25 -139 -53 -71 -106 -123 -124 -123 -13 0 -138 96 -189
145 -12 12 -4 26 54 95 67 81 69 82 107 77 21 -3 38 -1 38 3 0 12 -109 104
-116 97 -3 -3 -1 -14 5 -25 6 -12 11 -27 11 -34 0 -10 -94 -132 -136 -177 -1
-2 -50 36 -108 84 -104 86 -105 88 -88 109 135 170 159 190 208 167 36 -16 29
2 -15 37 l-39 32 -146 -175z"/>
<path d="M8626 7643 c5 -31 2 -42 -18 -60 -42 -39 -401 -283 -425 -289 -14 -4
-34 1 -49 11 -14 9 -27 15 -29 13 -7 -7 120 -187 132 -188 8 0 8 7 0 30 -11
28 -9 33 23 64 42 41 363 264 405 282 30 12 61 5 76 -19 4 -6 9 -6 12 0 7 10
-112 192 -126 193 -4 0 -5 -17 -1 -37z"/>
<path d="M1332 7214 c-29 -57 -47 -104 -41 -104 7 0 17 7 24 17 20 27 67 17
174 -36 l101 -51 -76 -153 c-42 -83 -77 -153 -79 -155 -1 -2 -50 20 -109 48
-108 52 -131 73 -123 116 10 53 -12 28 -61 -71 -48 -98 -57 -139 -19 -94 9 10
28 19 42 19 27 0 447 -200 477 -227 10 -9 18 -30 18 -50 0 -18 4 -33 8 -33 9
0 104 201 98 208 -2 2 -14 -6 -25 -17 -12 -12 -32 -21 -44 -21 -30 0 -227 96
-227 110 0 6 34 78 75 160 l75 150 100 -50 c122 -61 144 -80 135 -121 -13 -58
12 -27 58 73 26 56 45 103 43 106 -2 2 -14 -6 -25 -17 -12 -12 -29 -21 -39
-21 -25 0 -453 207 -480 233 -17 16 -22 30 -19 50 8 54 -10 35 -61 -69z"/>
<path d="M8897 7162 c-59 -27 -68 -46 -18 -36 20 4 36 -1 57 -19 35 -30 92
-143 78 -156 -23 -23 -474 -221 -502 -221 -20 0 -36 7 -46 22 -33 47 -25 6 17
-88 44 -98 72 -134 61 -77 -4 21 0 33 14 46 18 16 484 237 500 237 4 0 20 -28
35 -62 33 -76 35 -137 7 -163 -35 -32 -22 -35 38 -8 78 35 80 38 49 71 -33 35
-197 390 -204 443 -3 21 -11 39 -17 39 -6 -1 -37 -13 -69 -28z"/>
<path d="M947 6313 c6 -49 -80 -434 -107 -481 -12 -19 -20 -36 -18 -37 10 -8
139 -31 143 -25 2 3 -9 14 -25 24 -17 9 -33 29 -37 44 -7 28 12 161 25 174 9
9 484 -96 530 -117 26 -12 32 -21 32 -45 0 -33 15 -41 24 -12 16 52 44 197 39
202 -3 3 -8 -1 -10 -8 -9 -24 -35 -42 -61 -42 -15 0 -141 25 -280 57 l-254 57
6 35 c18 109 57 171 107 171 48 0 33 15 -29 28 -89 18 -91 18 -85 -25z"/>
<path d="M9290 6288 c0 -28 -17 -49 -127 -158 l-128 -127 -117 -23 c-129 -25
-164 -22 -178 15 -18 48 -28 25 -15 -32 7 -32 18 -84 25 -115 11 -58 30 -79
30 -35 0 13 8 31 18 41 18 16 213 66 258 66 12 0 84 -23 160 -51 114 -41 145
-57 172 -86 17 -20 34 -34 36 -32 5 4 -19 130 -30 159 -4 11 -8 8 -17 -10 -8
-16 -23 -26 -41 -28 -29 -4 -226 64 -226 77 0 15 178 181 195 181 9 0 22 -13
28 -30 6 -16 15 -30 19 -30 10 0 12 -8 -17 124 -14 64 -25 118 -25 121 0 3 -4
5 -10 5 -5 0 -10 -14 -10 -32z"/>
<path d="M1072 5113 c-25 -10 -34 -53 -17 -79 18 -28 65 -33 85 -9 40 48 -10
111 -68 88z"/>
<path d="M9132 5104 c-43 -30 -21 -94 31 -94 40 0 57 15 57 51 0 27 -30 59
-55 59 -6 0 -21 -7 -33 -16z"/>
<path d="M8767 4403 c-7 -12 -57 -190 -57 -202 0 -6 5 -11 10 -11 6 0 10 7 10
15 0 22 39 38 79 31 20 -3 75 -18 122 -34 l87 -27 -48 -163 c-27 -90 -50 -165
-52 -167 -8 -8 -203 55 -227 73 -14 10 -27 31 -29 45 -2 15 -6 27 -10 27 -4 0
-21 -50 -38 -110 -17 -61 -29 -110 -26 -110 2 0 15 11 28 25 13 14 33 25 45
25 37 0 473 -130 499 -149 14 -10 26 -30 28 -44 2 -15 6 -27 10 -27 8 0 71
213 65 220 -3 3 -14 -7 -25 -23 -13 -18 -29 -27 -46 -27 -24 0 -229 54 -238
63 -2 1 19 77 45 167 42 143 51 165 67 162 39 -7 183 -51 205 -63 30 -15 39
-28 39 -56 0 -49 17 -18 47 85 17 59 29 109 26 112 -2 3 -14 -7 -25 -23 -13
-18 -29 -27 -47 -27 -43 0 -473 128 -501 149 -16 12 -25 28 -25 45 1 25 -9 35
-18 19z"/>
<path d="M1178 4336 c-184 -66 -275 -241 -220 -423 47 -155 174 -248 334 -246
169 2 312 137 326 308 12 156 -85 310 -229 360 -51 18 -161 19 -211 1z m278
-100 c119 -55 166 -187 108 -304 -49 -99 -165 -163 -305 -170 -114 -6 -173 13
-227 73 -81 86 -83 204 -6 293 97 114 305 166 430 108z"/>
<path d="M1814 3454 c4 -16 1 -35 -8 -49 -15 -22 -363 -228 -441 -261 -36 -15
-39 -15 -67 6 -16 12 -31 20 -33 18 -6 -6 105 -198 115 -198 5 0 6 15 3 33 -6
40 2 48 127 120 108 63 96 67 157 -42 39 -70 44 -102 19 -130 -9 -9 -16 -21
-16 -25 0 -10 129 61 150 82 13 13 11 14 -18 8 -19 -3 -42 -1 -52 4 -17 9
-105 154 -105 173 0 4 51 36 113 72 129 73 106 79 176 -44 48 -83 54 -111 27
-135 -40 -36 -24 -47 25 -18 26 15 47 31 47 35 0 15 -208 376 -217 377 -4 0
-5 -12 -2 -26z"/>
<path d="M8410 3403 c0 -21 -12 -40 -41 -68 -60 -58 -95 -114 -114 -180 -46
-157 35 -324 193 -402 48 -24 69 -28 137 -28 101 1 158 28 236 112 45 49 158
239 147 248 -2 1 -45 28 -95 59 -97 60 -115 84 -94 124 7 13 7 23 2 27 -11 6
-146 -213 -137 -222 3 -3 15 6 27 20 28 37 63 34 134 -9 66 -39 75 -49 75 -82
0 -68 -79 -152 -167 -178 -186 -54 -433 109 -433 286 0 133 105 231 235 217
30 -3 55 -3 55 1 0 7 -36 32 -112 76 l-48 28 0 -29z"/>
<path d="M7810 2560 c-47 -25 -270 -250 -248 -250 9 0 20 5 23 10 3 6 18 10
32 10 20 0 67 -41 210 -182 101 -101 187 -193 190 -207 3 -13 0 -33 -6 -43
-30 -48 6 -26 81 50 45 44 79 84 75 88 -4 4 -13 2 -19 -4 -7 -7 -25 -12 -40
-12 -22 0 -48 19 -114 82 l-85 82 34 34 c48 47 92 51 250 18 69 -14 135 -26
145 -26 10 0 38 23 62 52 44 51 44 51 14 42 -41 -12 -109 -8 -184 11 -35 9
-94 19 -131 22 l-67 6 10 29 c26 75 -6 158 -74 194 -38 20 -116 17 -158 -6z
m96 -61 c85 -41 111 -140 55 -215 -15 -21 -38 -48 -50 -58 l-22 -20 -104 104
-105 104 33 34 c34 36 99 71 131 72 11 0 39 -9 62 -21z"/>
<path d="M2605 2404 c15 -37 17 -62 5 -83 -15 -29 -286 -361 -313 -384 -17
-15 -31 -17 -62 -12 l-40 6 25 -25 c33 -32 333 -276 340 -276 3 0 25 18 50 41
38 34 41 39 20 34 -74 -18 -85 -17 -127 12 -56 38 -153 122 -153 133 0 7 62
88 145 187 l20 23 84 -71 c79 -67 83 -73 78 -104 -3 -18 -3 -36 0 -38 3 -3 27
21 55 54 50 61 57 80 20 60 -12 -6 -28 -11 -38 -11 -18 0 -173 119 -174 133 0
12 160 207 170 207 5 0 50 -34 100 -76 l92 -76 -5 -44 c-2 -24 -2 -44 2 -43 8
0 50 53 55 70 3 9 -60 67 -161 149 -187 152 -200 162 -188 134z"/>
<path d="M7178 2041 c-100 -57 -121 -78 -69 -66 44 9 68 -19 185 -221 l105
-182 -13 -53 c-11 -41 -25 -63 -59 -95 -72 -69 -159 -77 -222 -21 -30 27 -223
357 -231 395 -4 20 0 33 15 46 45 41 6 31 -81 -20 -113 -67 -126 -78 -76 -69
49 9 60 -3 176 -203 101 -174 145 -224 213 -242 54 -15 103 -6 168 31 54 31
107 99 118 152 8 40 17 40 38 2 l18 -35 56 32 c31 17 63 38 71 46 13 13 11 14
-17 9 -25 -5 -38 -1 -58 16 -33 30 -256 414 -262 453 -3 21 0 36 12 47 39 40
3 31 -87 -22z"/>
<path d="M3280 1901 c0 -4 9 -16 20 -26 11 -10 20 -28 20 -39 0 -30 -196 -456
-223 -484 -16 -17 -30 -22 -50 -19 -16 2 -26 -1 -24 -7 4 -13 282 -141 349
-161 157 -46 297 15 369 161 28 56 33 77 33 142 1 151 -75 246 -272 339 -176
83 -222 103 -222 94z m286 -154 c43 -23 88 -77 109 -131 52 -134 -37 -347
-169 -407 -61 -28 -125 -24 -212 12 -88 37 -110 62 -96 111 9 31 158 362 202
448 l20 39 57 -27 c32 -16 72 -35 89 -45z"/>
<path d="M6008 1533 c-125 -35 -158 -53 -98 -53 20 0 34 -7 44 -22 20 -31 136
-460 136 -502 0 -26 -7 -40 -27 -55 -25 -18 -26 -20 -8 -21 31 0 301 78 343
99 134 68 126 227 -13 292 -22 10 -53 19 -69 19 l-29 0 42 45 c34 37 41 51 41
86 0 57 -24 102 -69 127 -57 32 -138 28 -293 -15z m232 -28 c59 -57 63 -141
10 -192 -32 -30 -129 -68 -141 -56 -7 8 -69 231 -69 250 0 15 70 32 123 29 37
-2 55 -10 77 -31z m80 -273 c41 -22 80 -90 80 -140 0 -72 -51 -119 -152 -137
-32 -6 -38 -4 -53 19 -18 26 -75 208 -75 238 0 35 143 50 200 20z"/>
<path d="M4220 1531 c0 -5 9 -13 21 -16 47 -15 44 -48 -36 -397 -41 -176 -46
-188 -85 -188 -33 0 -41 -15 -12 -24 44 -14 197 -44 201 -41 2 3 -8 14 -22 26
-18 14 -27 30 -27 49 0 48 98 481 115 506 9 13 22 25 30 25 28 3 33 4 40 11 4
4 -3 9 -16 12 -218 51 -209 49 -209 37z"/>
<path d="M4825 1421 c-3 -5 11 -15 31 -21 59 -20 64 -44 64 -320 0 -227 -1
-241 -20 -260 -11 -11 -26 -20 -34 -20 -8 0 -18 -4 -21 -10 -4 -6 30 -10 94
-10 98 0 131 12 71 25 -51 11 -55 28 -58 295 l-2 245 21 -25 c11 -14 115 -139
230 -277 115 -139 214 -253 219 -253 6 0 10 108 10 293 0 272 1 295 18 310 10
10 28 17 40 17 12 0 22 5 22 10 0 6 -40 10 -101 10 -64 0 -98 -4 -94 -10 3 -5
15 -10 25 -10 43 0 50 -34 56 -266 l5 -219 -21 25 c-12 14 -106 127 -208 253
l-187 227 -77 0 c-42 0 -79 -4 -83 -9z"/>
</g>
</svg>
